<?xml version="1.0" encoding="utf-8"?>
<svg xmlns="http://www.w3.org/2000/svg" xmlns:xlink="http://www.w3.org/1999/xlink" width="600" height="400" viewBox="0 0 2400 1600">
<defs>
  <clipPath id="clip610">
    <rect x="0" y="0" width="2400" height="1600"/>
  </clipPath>
</defs>
<path clip-path="url(#clip610)" d="
M0 1600 L2400 1600 L2400 0 L0 0  Z
  " fill="#ffffff" fill-rule="evenodd" fill-opacity="1"/>
<defs>
  <clipPath id="clip611">
    <rect x="480" y="0" width="1681" height="1600"/>
  </clipPath>
</defs>
<defs>
  <clipPath id="clip612">
    <rect x="337" y="47" width="1108" height="1303"/>
  </clipPath>
</defs>
<path clip-path="url(#clip610)" d="
M337.843 1349.74 L1444.39 1349.74 L1444.39 47.2441 L337.843 47.2441  Z
  " fill="#ffffff" fill-rule="evenodd" fill-opacity="1"/>
<polyline clip-path="url(#clip610)" style="stroke:#000000; stroke-linecap:butt; stroke-linejoin:round; stroke-width:4; stroke-opacity:1; fill:none" points="
  337.843,1349.74 1444.39,1349.74 
  "/>
<polyline clip-path="url(#clip610)" style="stroke:#000000; stroke-linecap:butt; stroke-linejoin:round; stroke-width:4; stroke-opacity:1; fill:none" points="
  369.161,1349.74 369.161,1330.84 
  "/>
<polyline clip-path="url(#clip610)" style="stroke:#000000; stroke-linecap:butt; stroke-linejoin:round; stroke-width:4; stroke-opacity:1; fill:none" points="
  630.139,1349.74 630.139,1330.84 
  "/>
<polyline clip-path="url(#clip610)" style="stroke:#000000; stroke-linecap:butt; stroke-linejoin:round; stroke-width:4; stroke-opacity:1; fill:none" points="
  891.118,1349.74 891.118,1330.84 
  "/>
<polyline clip-path="url(#clip610)" style="stroke:#000000; stroke-linecap:butt; stroke-linejoin:round; stroke-width:4; stroke-opacity:1; fill:none" points="
  1152.1,1349.74 1152.1,1330.84 
  "/>
<polyline clip-path="url(#clip610)" style="stroke:#000000; stroke-linecap:butt; stroke-linejoin:round; stroke-width:4; stroke-opacity:1; fill:none" points="
  1413.08,1349.74 1413.08,1330.84 
  "/>
<path clip-path="url(#clip610)" d="M369.161 1395.31 Q361.036 1395.31 356.921 1403.33 Q352.859 1411.3 352.859 1427.34 Q352.859 1443.33 356.921 1451.35 Q361.036 1459.32 369.161 1459.32 Q377.338 1459.32 381.4 1451.35 Q385.515 1443.33 385.515 1427.34 Q385.515 1411.3 381.4 1403.33 Q377.338 1395.31 369.161 1395.31 M369.161 1386.97 Q382.233 1386.97 389.108 1397.34 Q396.035 1407.65 396.035 1427.34 Q396.035 1446.97 389.108 1457.34 Q382.233 1467.65 369.161 1467.65 Q356.088 1467.65 349.161 1457.34 Q342.286 1446.97 342.286 1427.34 Q342.286 1407.65 349.161 1397.34 Q356.088 1386.97 369.161 1386.97 Z" fill="#000000" fill-rule="evenodd" fill-opacity="1" /><path clip-path="url(#clip610)" d="M608.264 1388.38 L649.566 1388.38 L649.566 1397.23 L617.9 1397.23 L617.9 1416.3 Q620.191 1415.52 622.483 1415.15 Q624.775 1414.73 627.066 1414.73 Q640.087 1414.73 647.691 1421.87 Q655.295 1429 655.295 1441.19 Q655.295 1453.74 647.483 1460.72 Q639.67 1467.65 625.452 1467.65 Q620.556 1467.65 615.452 1466.82 Q610.4 1465.98 604.983 1464.32 L604.983 1453.74 Q609.671 1456.3 614.67 1457.55 Q619.67 1458.8 625.243 1458.8 Q634.254 1458.8 639.514 1454.06 Q644.775 1449.32 644.775 1441.19 Q644.775 1433.07 639.514 1428.33 Q634.254 1423.59 625.243 1423.59 Q621.025 1423.59 616.806 1424.53 Q612.639 1425.46 608.264 1427.44 L608.264 1388.38 Z" fill="#000000" fill-rule="evenodd" fill-opacity="1" /><path clip-path="url(#clip610)" d="M834.165 1457.29 L851.352 1457.29 L851.352 1397.96 L832.655 1401.71 L832.655 1392.13 L851.248 1388.38 L861.769 1388.38 L861.769 1457.29 L878.956 1457.29 L878.956 1466.14 L834.165 1466.14 L834.165 1457.29 Z" fill="#000000" fill-rule="evenodd" fill-opacity="1" /><path clip-path="url(#clip610)" d="M922.706 1395.31 Q914.581 1395.31 910.467 1403.33 Q906.404 1411.3 906.404 1427.34 Q906.404 1443.33 910.467 1451.35 Q914.581 1459.32 922.706 1459.32 Q930.883 1459.32 934.946 1451.35 Q939.06 1443.33 939.06 1427.34 Q939.06 1411.3 934.946 1403.33 Q930.883 1395.31 922.706 1395.31 M922.706 1386.97 Q935.779 1386.97 942.654 1397.34 Q949.581 1407.65 949.581 1427.34 Q949.581 1446.97 942.654 1457.34 Q935.779 1467.65 922.706 1467.65 Q909.633 1467.65 902.706 1457.34 Q895.831 1446.97 895.831 1427.34 Q895.831 1407.65 902.706 1397.34 Q909.633 1386.97 922.706 1386.97 Z" fill="#000000" fill-rule="evenodd" fill-opacity="1" /><path clip-path="url(#clip610)" d="M1096.26 1457.29 L1113.45 1457.29 L1113.45 1397.96 L1094.75 1401.71 L1094.75 1392.13 L1113.35 1388.38 L1123.87 1388.38 L1123.87 1457.29 L1141.05 1457.29 L1141.05 1466.14 L1096.26 1466.14 L1096.26 1457.29 Z" fill="#000000" fill-rule="evenodd" fill-opacity="1" /><path clip-path="url(#clip610)" d="M1162.41 1388.38 L1203.71 1388.38 L1203.71 1397.23 L1172.04 1397.23 L1172.04 1416.3 Q1174.34 1415.52 1176.63 1415.15 Q1178.92 1414.73 1181.21 1414.73 Q1194.23 1414.73 1201.84 1421.87 Q1209.44 1429 1209.44 1441.19 Q1209.44 1453.74 1201.63 1460.72 Q1193.82 1467.65 1179.6 1467.65 Q1174.7 1467.65 1169.6 1466.82 Q1164.54 1465.98 1159.13 1464.32 L1159.13 1453.74 Q1163.82 1456.3 1168.82 1457.55 Q1173.82 1458.8 1179.39 1458.8 Q1188.4 1458.8 1193.66 1454.06 Q1198.92 1449.32 1198.92 1441.19 Q1198.92 1433.07 1193.66 1428.33 Q1188.4 1423.59 1179.39 1423.59 Q1175.17 1423.59 1170.95 1424.53 Q1166.78 1425.46 1162.41 1427.44 L1162.41 1388.38 Z" fill="#000000" fill-rule="evenodd" fill-opacity="1" /><path clip-path="url(#clip610)" d="M1365.31 1457.29 L1402.03 1457.29 L1402.03 1466.14 L1352.66 1466.14 L1352.66 1457.29 Q1358.65 1451.09 1368.96 1440.67 Q1379.33 1430.2 1381.98 1427.18 Q1387.03 1421.5 1389.01 1417.6 Q1391.04 1413.64 1391.04 1409.84 Q1391.04 1403.64 1386.67 1399.73 Q1382.35 1395.83 1375.37 1395.83 Q1370.42 1395.83 1364.9 1397.55 Q1359.43 1399.27 1353.18 1402.75 L1353.18 1392.13 Q1359.53 1389.58 1365.05 1388.28 Q1370.58 1386.97 1375.16 1386.97 Q1387.24 1386.97 1394.43 1393.02 Q1401.62 1399.06 1401.62 1409.16 Q1401.62 1413.95 1399.79 1418.28 Q1398.02 1422.55 1393.28 1428.38 Q1391.98 1429.89 1385 1437.13 Q1378.02 1444.32 1365.31 1457.29 Z" fill="#000000" fill-rule="evenodd" fill-opacity="1" /><path clip-path="url(#clip610)" d="M1446.62 1395.31 Q1438.49 1395.31 1434.38 1403.33 Q1430.31 1411.3 1430.31 1427.34 Q1430.31 1443.33 1434.38 1451.35 Q1438.49 1459.32 1446.62 1459.32 Q1454.79 1459.32 1458.86 1451.35 Q1462.97 1443.33 1462.97 1427.34 Q1462.97 1411.3 1458.86 1403.33 Q1454.79 1395.31 1446.62 1395.31 M1446.62 1386.97 Q1459.69 1386.97 1466.56 1397.34 Q1473.49 1407.65 1473.49 1427.34 Q1473.49 1446.97 1466.56 1457.34 Q1459.69 1467.65 1446.62 1467.65 Q1433.54 1467.65 1426.62 1457.34 Q1419.74 1446.97 1419.74 1427.34 Q1419.74 1407.65 1426.62 1397.34 Q1433.54 1386.97 1446.62 1386.97 Z" fill="#000000" fill-rule="evenodd" fill-opacity="1" /><path clip-path="url(#clip610)" d="M706.952 1520.8 L706.952 1537.36 L726.692 1537.36 L726.692 1544.81 L706.952 1544.81 L706.952 1576.47 Q706.952 1583.61 708.879 1585.64 Q710.858 1587.67 716.848 1587.67 L726.692 1587.67 L726.692 1595.69 L716.848 1595.69 Q705.754 1595.69 701.536 1591.58 Q697.317 1587.41 697.317 1576.47 L697.317 1544.81 L690.286 1544.81 L690.286 1537.36 L697.317 1537.36 L697.317 1520.8 L706.952 1520.8 Z" fill="#000000" fill-rule="evenodd" fill-opacity="1" /><path clip-path="url(#clip610)" d="M739.296 1537.36 L748.879 1537.36 L748.879 1595.69 L739.296 1595.69 L739.296 1537.36 M739.296 1514.65 L748.879 1514.65 L748.879 1526.79 L739.296 1526.79 L739.296 1514.65 Z" fill="#000000" fill-rule="evenodd" fill-opacity="1" /><path clip-path="url(#clip610)" d="M814.347 1548.56 Q817.941 1542.1 822.941 1539.03 Q827.941 1535.95 834.712 1535.95 Q843.826 1535.95 848.774 1542.36 Q853.722 1548.71 853.722 1560.48 L853.722 1595.69 L844.087 1595.69 L844.087 1560.8 Q844.087 1552.41 841.118 1548.35 Q838.149 1544.29 832.056 1544.29 Q824.608 1544.29 820.285 1549.23 Q815.962 1554.18 815.962 1562.72 L815.962 1595.69 L806.327 1595.69 L806.327 1560.8 Q806.327 1552.36 803.358 1548.35 Q800.389 1544.29 794.191 1544.29 Q786.848 1544.29 782.525 1549.29 Q778.202 1554.23 778.202 1562.72 L778.202 1595.69 L768.566 1595.69 L768.566 1537.36 L778.202 1537.36 L778.202 1546.42 Q781.483 1541.06 786.066 1538.5 Q790.65 1535.95 796.952 1535.95 Q803.306 1535.95 807.733 1539.18 Q812.212 1542.41 814.347 1548.56 Z" fill="#000000" fill-rule="evenodd" fill-opacity="1" /><path clip-path="url(#clip610)" d="M922.732 1564.13 L922.732 1568.82 L878.67 1568.82 Q879.295 1578.71 884.607 1583.92 Q889.972 1589.08 899.503 1589.08 Q905.024 1589.08 910.18 1587.72 Q915.389 1586.37 920.493 1583.66 L920.493 1592.72 Q915.336 1594.91 909.92 1596.06 Q904.503 1597.2 898.93 1597.2 Q884.972 1597.2 876.795 1589.08 Q868.67 1580.95 868.67 1567.1 Q868.67 1552.78 876.378 1544.39 Q884.139 1535.95 897.264 1535.95 Q909.034 1535.95 915.857 1543.56 Q922.732 1551.11 922.732 1564.13 M913.149 1561.32 Q913.045 1553.45 908.722 1548.77 Q904.451 1544.08 897.368 1544.08 Q889.347 1544.08 884.503 1548.61 Q879.712 1553.14 878.982 1561.37 L913.149 1561.32 Z" fill="#000000" fill-rule="evenodd" fill-opacity="1" /><path clip-path="url(#clip610)" d="M995.388 1514.75 Q988.409 1526.73 985.024 1538.45 Q981.638 1550.17 981.638 1562.2 Q981.638 1574.23 985.024 1586.06 Q988.461 1597.83 995.388 1609.75 L987.055 1609.75 Q979.242 1597.51 975.336 1585.69 Q971.482 1573.87 971.482 1562.2 Q971.482 1550.59 975.336 1538.82 Q979.19 1527.05 987.055 1514.75 L995.388 1514.75 Z" fill="#000000" fill-rule="evenodd" fill-opacity="1" /><path clip-path="url(#clip610)" d="M1051.17 1539.08 L1051.17 1548.14 Q1047.11 1546.06 1042.73 1545.02 Q1038.36 1543.97 1033.67 1543.97 Q1026.53 1543.97 1022.94 1546.16 Q1019.4 1548.35 1019.4 1552.72 Q1019.4 1556.06 1021.95 1557.98 Q1024.5 1559.86 1032.21 1561.58 L1035.49 1562.31 Q1045.7 1564.49 1049.97 1568.5 Q1054.29 1572.46 1054.29 1579.6 Q1054.29 1587.72 1047.84 1592.46 Q1041.43 1597.2 1030.18 1597.2 Q1025.49 1597.2 1020.39 1596.26 Q1015.34 1595.38 1009.71 1593.56 L1009.71 1583.66 Q1015.02 1586.42 1020.18 1587.83 Q1025.34 1589.18 1030.39 1589.18 Q1037.16 1589.18 1040.8 1586.89 Q1044.45 1584.55 1044.45 1580.33 Q1044.45 1576.42 1041.79 1574.34 Q1039.19 1572.25 1030.28 1570.33 L1026.95 1569.55 Q1018.04 1567.67 1014.09 1563.82 Q1010.13 1559.91 1010.13 1553.14 Q1010.13 1544.91 1015.96 1540.43 Q1021.79 1535.95 1032.52 1535.95 Q1037.84 1535.95 1042.52 1536.73 Q1047.21 1537.52 1051.17 1539.08 Z" fill="#000000" fill-rule="evenodd" fill-opacity="1" /><path clip-path="url(#clip610)" d="M1068.04 1514.75 L1076.38 1514.75 Q1084.19 1527.05 1088.04 1538.82 Q1091.95 1550.59 1091.95 1562.2 Q1091.95 1573.87 1088.04 1585.69 Q1084.19 1597.51 1076.38 1609.75 L1068.04 1609.75 Q1074.97 1597.83 1078.36 1586.06 Q1081.79 1574.23 1081.79 1562.2 Q1081.79 1550.17 1078.36 1538.45 Q1074.97 1526.73 1068.04 1514.75 Z" fill="#000000" fill-rule="evenodd" fill-opacity="1" /><polyline clip-path="url(#clip610)" style="stroke:#000000; stroke-linecap:butt; stroke-linejoin:round; stroke-width:4; stroke-opacity:1; fill:none" points="
  337.843,1349.74 337.843,47.2441 
  "/>
<polyline clip-path="url(#clip610)" style="stroke:#000000; stroke-linecap:butt; stroke-linejoin:round; stroke-width:4; stroke-opacity:1; fill:none" points="
  337.843,1304.85 348.221,1304.85 
  "/>
<polyline clip-path="url(#clip610)" style="stroke:#000000; stroke-linecap:butt; stroke-linejoin:round; stroke-width:4; stroke-opacity:1; fill:none" points="
  337.843,1039.37 348.221,1039.37 
  "/>
<polyline clip-path="url(#clip610)" style="stroke:#000000; stroke-linecap:butt; stroke-linejoin:round; stroke-width:4; stroke-opacity:1; fill:none" points="
  337.843,773.895 348.221,773.895 
  "/>
<polyline clip-path="url(#clip610)" style="stroke:#000000; stroke-linecap:butt; stroke-linejoin:round; stroke-width:4; stroke-opacity:1; fill:none" points="
  337.843,508.417 348.221,508.417 
  "/>
<polyline clip-path="url(#clip610)" style="stroke:#000000; stroke-linecap:butt; stroke-linejoin:round; stroke-width:4; stroke-opacity:1; fill:none" points="
  337.843,242.94 348.221,242.94 
  "/>
<path clip-path="url(#clip610)" d="M159.76 1334.88 L196.479 1334.88 L196.479 1343.73 L147.104 1343.73 L147.104 1334.88 Q153.094 1328.68 163.406 1318.26 Q173.771 1307.79 176.427 1304.77 Q181.479 1299.1 183.458 1295.19 Q185.49 1291.23 185.49 1287.43 Q185.49 1281.23 181.115 1277.33 Q176.792 1273.42 169.813 1273.42 Q164.865 1273.42 159.344 1275.14 Q153.875 1276.86 147.625 1280.35 L147.625 1269.72 Q153.979 1267.17 159.5 1265.87 Q165.021 1264.56 169.604 1264.56 Q181.687 1264.56 188.875 1270.61 Q196.062 1276.65 196.062 1286.75 Q196.062 1291.54 194.239 1295.87 Q192.469 1300.14 187.729 1305.97 Q186.427 1307.48 179.448 1314.72 Q172.469 1321.91 159.76 1334.88 Z" fill="#000000" fill-rule="evenodd" fill-opacity="1" /><path clip-path="url(#clip610)" d="M218.562 1330.5 L229.552 1330.5 L229.552 1343.73 L218.562 1343.73 L218.562 1330.5 Z" fill="#000000" fill-rule="evenodd" fill-opacity="1" /><path clip-path="url(#clip610)" d="M274.968 1272.9 Q266.843 1272.9 262.729 1280.92 Q258.666 1288.89 258.666 1304.93 Q258.666 1320.92 262.729 1328.94 Q266.843 1336.91 274.968 1336.91 Q283.145 1336.91 287.208 1328.94 Q291.322 1320.92 291.322 1304.93 Q291.322 1288.89 287.208 1280.92 Q283.145 1272.9 274.968 1272.9 M274.968 1264.56 Q288.041 1264.56 294.916 1274.93 Q301.843 1285.24 301.843 1304.93 Q301.843 1324.56 294.916 1334.93 Q288.041 1345.24 274.968 1345.24 Q261.895 1345.24 254.968 1334.93 Q248.093 1324.56 248.093 1304.93 Q248.093 1285.24 254.968 1274.93 Q261.895 1264.56 274.968 1264.56 Z" fill="#000000" fill-rule="evenodd" fill-opacity="1" /><path clip-path="url(#clip610)" d="M162 1069.4 L198.719 1069.4 L198.719 1078.25 L149.344 1078.25 L149.344 1069.4 Q155.333 1063.2 165.646 1052.78 Q176.01 1042.32 178.667 1039.3 Q183.719 1033.62 185.698 1029.71 Q187.729 1025.75 187.729 1021.95 Q187.729 1015.75 183.354 1011.85 Q179.031 1007.94 172.052 1007.94 Q167.104 1007.94 161.583 1009.66 Q156.115 1011.38 149.865 1014.87 L149.865 1004.24 Q156.219 1001.69 161.74 1000.39 Q167.26 999.087 171.844 999.087 Q183.927 999.087 191.114 1005.13 Q198.302 1011.17 198.302 1021.27 Q198.302 1026.07 196.479 1030.39 Q194.708 1034.66 189.969 1040.49 Q188.667 1042 181.687 1049.24 Q174.708 1056.43 162 1069.4 Z" fill="#000000" fill-rule="evenodd" fill-opacity="1" /><path clip-path="url(#clip610)" d="M220.802 1065.02 L231.791 1065.02 L231.791 1078.25 L220.802 1078.25 L220.802 1065.02 Z" fill="#000000" fill-rule="evenodd" fill-opacity="1" /><path clip-path="url(#clip610)" d="M254.812 1000.49 L296.114 1000.49 L296.114 1009.35 L264.447 1009.35 L264.447 1028.41 Q266.739 1027.63 269.031 1027.26 Q271.322 1026.85 273.614 1026.85 Q286.635 1026.85 294.239 1033.98 Q301.843 1041.12 301.843 1053.31 Q301.843 1065.86 294.031 1072.84 Q286.218 1079.76 271.999 1079.76 Q267.104 1079.76 262 1078.93 Q256.947 1078.1 251.531 1076.43 L251.531 1065.86 Q256.218 1068.41 261.218 1069.66 Q266.218 1070.91 271.791 1070.91 Q280.802 1070.91 286.062 1066.17 Q291.322 1061.43 291.322 1053.31 Q291.322 1045.18 286.062 1040.44 Q280.802 1035.7 271.791 1035.7 Q267.572 1035.7 263.354 1036.64 Q259.187 1037.58 254.812 1039.56 L254.812 1000.49 Z" fill="#000000" fill-rule="evenodd" fill-opacity="1" /><path clip-path="url(#clip610)" d="M182.573 770.848 Q190.125 772.463 194.344 777.567 Q198.614 782.671 198.614 790.171 Q198.614 801.682 190.698 807.984 Q182.781 814.286 168.198 814.286 Q163.302 814.286 158.094 813.296 Q152.938 812.359 147.417 810.432 L147.417 800.275 Q151.792 802.827 157 804.13 Q162.208 805.432 167.885 805.432 Q177.781 805.432 182.937 801.525 Q188.146 797.619 188.146 790.171 Q188.146 783.296 183.302 779.442 Q178.51 775.536 169.917 775.536 L160.854 775.536 L160.854 766.89 L170.333 766.89 Q178.094 766.89 182.208 763.817 Q186.323 760.692 186.323 754.859 Q186.323 748.869 182.052 745.692 Q177.833 742.463 169.917 742.463 Q165.594 742.463 160.646 743.401 Q155.698 744.338 149.761 746.317 L149.761 736.942 Q155.75 735.276 160.958 734.442 Q166.219 733.609 170.854 733.609 Q182.833 733.609 189.812 739.078 Q196.792 744.494 196.792 753.765 Q196.792 760.223 193.094 764.703 Q189.396 769.13 182.573 770.848 Z" fill="#000000" fill-rule="evenodd" fill-opacity="1" /><path clip-path="url(#clip610)" d="M218.562 799.546 L229.552 799.546 L229.552 812.775 L218.562 812.775 L218.562 799.546 Z" fill="#000000" fill-rule="evenodd" fill-opacity="1" /><path clip-path="url(#clip610)" d="M274.968 741.942 Q266.843 741.942 262.729 749.963 Q258.666 757.932 258.666 773.973 Q258.666 789.963 262.729 797.984 Q266.843 805.952 274.968 805.952 Q283.145 805.952 287.208 797.984 Q291.322 789.963 291.322 773.973 Q291.322 757.932 287.208 749.963 Q283.145 741.942 274.968 741.942 M274.968 733.609 Q288.041 733.609 294.916 743.974 Q301.843 754.286 301.843 773.973 Q301.843 793.609 294.916 803.973 Q288.041 814.286 274.968 814.286 Q261.895 814.286 254.968 803.973 Q248.093 793.609 248.093 773.973 Q248.093 754.286 254.968 743.974 Q261.895 733.609 274.968 733.609 Z" fill="#000000" fill-rule="evenodd" fill-opacity="1" /><path clip-path="url(#clip610)" d="M184.812 505.371 Q192.364 506.985 196.583 512.089 Q200.854 517.193 200.854 524.693 Q200.854 536.204 192.937 542.506 Q185.021 548.808 170.438 548.808 Q165.542 548.808 160.333 547.818 Q155.177 546.881 149.656 544.954 L149.656 534.797 Q154.031 537.35 159.24 538.652 Q164.448 539.954 170.125 539.954 Q180.021 539.954 185.177 536.047 Q190.385 532.141 190.385 524.693 Q190.385 517.818 185.542 513.964 Q180.75 510.058 172.156 510.058 L163.094 510.058 L163.094 501.412 L172.573 501.412 Q180.333 501.412 184.448 498.339 Q188.562 495.214 188.562 489.381 Q188.562 483.391 184.292 480.214 Q180.073 476.985 172.156 476.985 Q167.833 476.985 162.885 477.923 Q157.938 478.86 152 480.839 L152 471.464 Q157.99 469.798 163.198 468.964 Q168.458 468.131 173.094 468.131 Q185.073 468.131 192.052 473.6 Q199.031 479.017 199.031 488.287 Q199.031 494.746 195.333 499.225 Q191.635 503.652 184.812 505.371 Z" fill="#000000" fill-rule="evenodd" fill-opacity="1" /><path clip-path="url(#clip610)" d="M220.802 534.068 L231.791 534.068 L231.791 547.297 L220.802 547.297 L220.802 534.068 Z" fill="#000000" fill-rule="evenodd" fill-opacity="1" /><path clip-path="url(#clip610)" d="M254.812 469.537 L296.114 469.537 L296.114 478.392 L264.447 478.392 L264.447 497.454 Q266.739 496.673 269.031 496.308 Q271.322 495.891 273.614 495.891 Q286.635 495.891 294.239 503.027 Q301.843 510.162 301.843 522.35 Q301.843 534.902 294.031 541.881 Q286.218 548.808 271.999 548.808 Q267.104 548.808 262 547.974 Q256.947 547.141 251.531 545.474 L251.531 534.902 Q256.218 537.454 261.218 538.704 Q266.218 539.954 271.791 539.954 Q280.802 539.954 286.062 535.214 Q291.322 530.475 291.322 522.35 Q291.322 514.225 286.062 509.485 Q280.802 504.746 271.791 504.746 Q267.572 504.746 263.354 505.683 Q259.187 506.621 254.812 508.6 L254.812 469.537 Z" fill="#000000" fill-rule="evenodd" fill-opacity="1" /><path clip-path="url(#clip610)" d="M179.604 213.226 L153.042 254.736 L179.604 254.736 L179.604 213.226 M176.844 204.06 L190.073 204.06 L190.073 254.736 L201.167 254.736 L201.167 263.486 L190.073 263.486 L190.073 281.82 L179.604 281.82 L179.604 263.486 L144.5 263.486 L144.5 253.33 L176.844 204.06 Z" fill="#000000" fill-rule="evenodd" fill-opacity="1" /><path clip-path="url(#clip610)" d="M218.562 268.59 L229.552 268.59 L229.552 281.82 L218.562 281.82 L218.562 268.59 Z" fill="#000000" fill-rule="evenodd" fill-opacity="1" /><path clip-path="url(#clip610)" d="M274.968 210.987 Q266.843 210.987 262.729 219.007 Q258.666 226.976 258.666 243.018 Q258.666 259.007 262.729 267.028 Q266.843 274.997 274.968 274.997 Q283.145 274.997 287.208 267.028 Q291.322 259.007 291.322 243.018 Q291.322 226.976 287.208 219.007 Q283.145 210.987 274.968 210.987 M274.968 202.653 Q288.041 202.653 294.916 213.018 Q301.843 223.33 301.843 243.018 Q301.843 262.653 294.916 273.017 Q288.041 283.33 274.968 283.33 Q261.895 283.33 254.968 273.017 Q248.093 262.653 248.093 243.018 Q248.093 223.33 254.968 213.018 Q261.895 202.653 274.968 202.653 Z" fill="#000000" fill-rule="evenodd" fill-opacity="1" /><path clip-path="url(#clip610)" d="M33.8956 702.446 Q42.7493 702.446 52.7097 705.292 Q62.6174 708.085 70.6278 712.512 Q78.5856 716.939 83.8557 722.736 Q89.073 728.533 89.073 734.066 Q89.073 737.597 87.1231 740.232 Q85.1205 742.815 81.8003 744.238 Q78.4275 745.661 74.7385 746.346 Q70.9967 747.031 66.9388 747.031 Q60.8783 747.031 54.2907 745.713 Q47.6504 744.396 41.6426 742.182 Q35.582 739.969 30.1012 736.86 Q24.5676 733.75 20.5624 730.325 Q16.5044 726.846 14.1329 722.947 Q11.7614 719.047 11.7614 715.41 Q11.7614 712.775 12.9208 710.667 Q14.0275 708.507 15.9774 707.136 Q17.8746 705.766 20.1408 704.818 Q22.4069 703.816 25.0419 703.342 Q27.6242 702.868 29.785 702.657 Q31.893 702.446 33.8956 702.446 M27.2026 709.561 Q24.5149 709.561 22.5123 709.771 Q20.457 709.982 18.4016 710.562 Q16.3463 711.142 15.2396 712.406 Q14.1329 713.619 14.1329 715.516 Q14.1329 721.049 25.4635 727.268 Q28.9944 729.271 33.7902 731.062 Q38.5859 732.854 40.8521 733.487 Q43.1182 734.119 48.7044 735.595 L48.7044 713.039 Q34.3172 709.561 27.2026 709.561 M52.13 713.988 L52.13 736.438 Q65.3051 739.916 73.5264 739.916 Q80.6936 739.916 83.6976 738.441 Q86.6488 736.912 86.6488 734.066 Q86.6488 730.799 83.3814 727.742 Q80.0612 724.686 74.0534 721.576 Q66.2537 717.466 52.13 713.988 Z" fill="#000000" fill-rule="evenodd" fill-opacity="1" /><path clip-path="url(#clip610)" d="M118.963 691.354 Q117.598 691.354 117.192 691.244 Q116.786 691.096 116.159 690.506 L100.001 676.008 Q91.0737 668.077 83.2898 668.077 Q78.2358 668.077 74.6206 670.733 Q71.0053 673.352 71.0053 678.185 Q71.0053 681.505 73.0343 684.308 Q75.0633 687.112 78.6785 688.403 Q78.6047 688.182 78.6047 687.407 Q78.6047 685.526 79.7852 684.493 Q80.9657 683.423 82.552 683.423 Q84.581 683.423 85.577 684.751 Q86.5362 686.042 86.5362 687.333 Q86.5362 687.85 86.4255 688.551 Q86.3148 689.215 85.2819 690.285 Q84.2121 691.354 82.3307 691.354 Q77.0553 691.354 72.8498 687.37 Q68.6443 683.349 68.6443 677.225 Q68.6443 670.29 72.7761 665.753 Q76.8709 661.178 83.2898 661.178 Q85.5401 661.178 87.606 661.879 Q89.635 662.543 91.2212 663.465 Q92.8075 664.351 95.353 666.785 Q97.8984 669.22 99.706 671.175 Q101.514 673.131 105.35 677.521 L113.134 685.526 L113.134 671.913 Q113.134 665.273 112.544 664.757 Q111.474 664.019 105.83 663.096 L105.83 661.178 L118.963 663.318 L118.963 691.354 Z" fill="#000000" fill-rule="evenodd" fill-opacity="1" /><polyline clip-path="url(#clip612)" style="stroke:#009af9; stroke-linecap:butt; stroke-linejoin:round; stroke-width:16; stroke-opacity:1; fill:none" points="
  369.161,1304.85 371.253,1304.85 373.345,1304.78 375.437,1304.46 377.529,1303.51 379.621,1301.24 381.713,1296.66 383.805,1288.45 385.897,1275.09 387.989,1255.04 
  390.081,1226.86 392.173,1189.37 394.265,1141.71 396.357,1083.28 398.449,1013.99 400.541,934.239 402.633,845.261 404.725,749.738 406.817,651.861 408.909,556.178 
  411.001,467.231 413.093,387.69 415.185,318.691 417.277,260.592 419.369,213.283 421.461,176.225 423.553,148.489 425.645,128.862 427.737,115.889 429.829,107.952 
  431.921,103.482 434.013,101.174 436.105,100.014 438.197,99.3242 440.289,98.7515 442.381,98.1202 444.473,97.399 446.565,96.6366 448.657,96.0232 450.749,95.9409 
  452.841,97.0699 454.933,100.431 457.025,107.388 459.117,119.488 461.209,138.269 463.301,165.248 465.393,201.65 467.485,248.397 469.577,306.042 471.669,374.673 
  473.761,454.076 475.853,543.091 477.945,639.229 480.037,738.262 482.129,835.303 484.221,925.905 486.313,1007.05 488.405,1077.53 490.497,1136.94 492.589,1185.37 
  494.681,1223.32 496.773,1251.65 498.865,1271.56 500.957,1284.47 503.049,1292 505.141,1295.78 507.233,1297.21 509.325,1297.35 511.417,1296.96 513.509,1296.46 
  515.601,1296.05 517.693,1295.79 519.785,1295.66 521.877,1295.52 523.969,1295.05 526.062,1293.65 528.154,1290.37 530.246,1283.9 532.338,1272.73 534.43,1255.18 
  536.522,1229.7 538.614,1195.03 540.706,1150.2 542.798,1094.66 544.89,1027.94 546.982,950.338 549.074,862.963 551.166,768.04 553.258,669.385 555.35,572.023 
  557.442,480.581 559.534,398.142 561.626,326.184 563.718,265.11 565.81,214.957 567.902,175.277 569.994,145.244 572.086,123.743 574.178,109.421 576.27,100.724 
  578.362,96.0525 580.454,94.0361 582.546,93.5783 584.638,93.8742 586.73,94.4629 588.822,95.1029 590.914,95.7051 593.006,96.2928 595.098,96.9927 597.19,98.115 
  599.282,100.227 601.374,104.235 603.466,111.373 605.558,123.134 607.65,141.121 609.742,166.803 611.834,201.458 613.926,245.958 616.018,301.199 618.11,367.503 
  620.202,444.45 622.294,531 624.386,624.957 626.478,722.611 628.57,819.158 630.662,910.159 632.754,992.116 634.846,1063.24 636.938,1123.4 639.03,1172.86 
  641.122,1212.04 643.214,1241.77 645.306,1263.25 647.398,1277.91 649.49,1287.25 651.582,1292.84 653.674,1296.16 655.766,1298.19 657.858,1299.64 659.95,1300.91 
  662.042,1302.17 664.134,1303.49 666.226,1304.83 668.318,1306 670.41,1306.64 672.502,1306.1 674.594,1303.43 676.686,1297.29 678.778,1286.2 680.87,1268.58 
  682.963,1242.91 685.055,1207.96 687.147,1162.78 689.239,1106.86 691.331,1039.79 693.423,961.711 695.515,873.714 697.607,778.106 699.699,678.689 701.791,580.306 
  703.883,488.191 705.975,405.212 708.067,332.891 710.159,271.679 712.251,221.586 714.343,182.185 716.435,152.639 718.527,131.786 720.619,118.193 722.711,110.247 
  724.803,106.226 726.895,104.652 728.987,104.383 731.079,104.621 733.171,104.908 735.263,105.031 737.355,104.914 739.447,104.571 741.539,104.111 743.631,103.807 
  745.723,104.197 747.815,106.168 749.907,110.996 751.999,120.231 754.091,135.543 756.183,158.556 758.275,190.648 760.367,232.871 762.459,285.85 764.551,350.09 
  766.643,425.519 768.735,511.263 770.827,605.465 772.919,704.609 775.011,803.779 777.103,897.936 779.195,983.513 781.287,1058.62 783.379,1122.78 785.471,1175.84 
  787.563,1218.14 789.655,1250.42 791.747,1273.72 793.839,1289.33 795.931,1298.78 798.023,1303.7 800.115,1305.56 802.207,1305.56 804.299,1304.61 806.391,1303.29 
  808.483,1301.89 810.575,1300.55 812.667,1299.29 814.759,1298.03 816.851,1296.54 818.943,1294.36 821.035,1290.69 823.127,1284.41 825.219,1274.08 827.311,1258.09 
  829.403,1234.85 831.495,1203.02 833.587,1161.59 835.679,1109.76 837.771,1046.84 839.864,972.959 841.956,889.054 844.048,796.948 846.14,699.902 848.232,602.428 
  850.324,509.568 852.416,424.691 854.508,349.855 856.6,285.686 858.692,232.295 860.784,189.4 862.876,156.286 864.968,131.896 867.06,114.921 869.152,103.908 
  871.244,97.2925 873.336,93.5999 875.428,91.7035 877.52,90.7712 879.612,90.2764 881.704,89.9476 883.796,89.6651 885.888,89.437 887.98,89.3813 890.072,89.7837 
  892.164,91.1658 894.256,94.3736 896.348,100.57 898.44,111.18 900.532,127.768 902.624,151.807 904.716,184.6 906.808,227.11 908.9,280.248 910.992,344.399 
  913.084,419.296 915.176,504.163 917.268,597.12 919.36,694.745 921.452,792.309 923.544,884.966 925.636,969.206 927.728,1043.15 929.82,1106.27 931.912,1158.5 
  934.004,1200.16 936.096,1232.07 938.188,1255.32 940.28,1271.28 942.372,1281.52 944.464,1287.72 946.556,1291.35 948.648,1293.52 950.74,1295.06 952.832,1296.43 
  954.924,1297.85 957.016,1299.41 959.108,1301.08 961.2,1302.72 963.292,1304.06 965.384,1304.55 967.476,1303.29 969.568,1299.05 971.66,1290.38 973.752,1275.64 
  975.844,1253.23 977.936,1221.81 980.028,1180.33 982.12,1128.17 984.212,1064.86 986.304,990.204 988.396,904.993 990.488,811.018 992.58,711.657 994.672,611.652 
  996.765,516.383 998.857,429.5 1000.95,353.017 1003.04,287.636 1005.13,233.528 1007.22,190.404 1009.32,157.551 1011.41,133.94 1013.5,118.24 1015.59,108.878 
  1017.68,104.125 1019.78,102.413 1021.87,102.457 1023.96,103.279 1026.05,104.285 1028.14,105.183 1030.24,105.841 1032.33,106.239 1034.42,106.429 1036.51,106.602 
  1038.6,107.159 1040.7,108.835 1042.79,112.74 1044.88,120.363 1046.97,133.344 1049.06,153.31 1051.16,181.834 1053.25,220.104 1055.34,269.005 1057.43,328.985 
  1059.52,400.043 1061.62,481.842 1063.71,572.922 1065.8,670.444 1067.89,769.832 1069.98,866.237 1072.08,955.278 1074.17,1034.49 1076.26,1102.88 1078.35,1160.19 
  1080.45,1206.61 1082.54,1242.74 1084.63,1269.49 1086.72,1288.08 1088.81,1299.91 1090.91,1306.55 1093,1309.54 1095.09,1310.17 1097.18,1309.45 1099.27,1308.09 
  1101.37,1306.49 1103.46,1304.83 1105.55,1303.18 1107.64,1301.5 1109.73,1299.63 1111.83,1297.18 1113.92,1293.5 1116.01,1287.59 1118.1,1278.13 1120.19,1263.57 
  1122.29,1242.35 1124.38,1213.06 1126.47,1174.49 1128.56,1125.81 1130.65,1066.34 1132.75,996.09 1134.84,915.668 1136.93,826.46 1139.02,731.285 1141.11,634.294 
  1143.21,540.193 1145.3,453.116 1147.39,375.735 1149.48,309.046 1151.57,252.991 1153.67,207.397 1155.76,171.659 1157.85,144.783 1159.94,125.491 1162.03,112.353 
  1164.13,103.873 1166.22,98.5242 1168.31,95.101 1170.4,92.7501 1172.49,90.903 1174.59,89.274 1176.68,87.7283 1178.77,86.2452 1180.86,84.9481 1182.95,84.1072 
  1185.05,84.2114 1187.14,86.0567 1189.23,90.7682 1191.32,99.7399 1193.41,114.428 1195.51,136.319 1197.6,166.864 1199.69,207.109 1201.78,257.87 1203.87,319.544 
  1205.97,392.116 1208.06,475.15 1210.15,567.033 1212.24,664.787 1214.33,763.638 1216.43,858.82 1218.52,946.402 1220.61,1023.88 1222.7,1090.44 1224.79,1145.83 
  1226.89,1190.34 1228.98,1224.58 1231.07,1249.56 1233.16,1266.64 1235.25,1277.42 1237.35,1283.56 1239.44,1286.67 1241.53,1288.16 1243.62,1288.92 1245.71,1289.54 
  1247.81,1290.29 1249.9,1291.31 1251.99,1292.61 1254.08,1294.11 1256.17,1295.62 1258.27,1296.72 1260.36,1296.69 1262.45,1294.39 1264.54,1288.39 1266.63,1277.07 
  1268.73,1258.68 1270.82,1231.73 1272.91,1195.01 1275,1147.68 1277.09,1089.25 1279.19,1019.3 1281.28,938.237 1283.37,847.373 1285.46,749.324 1287.55,648.326 
  1289.65,549.793 1291.74,458.444 1293.83,376.896 1295.92,306.348 1298.01,247.081 1300.11,199.007 1302.2,161.601 1304.29,133.977 1306.38,114.957 1308.47,103.118 
  1310.57,96.8324 1312.66,94.4342 1314.75,94.5051 1316.84,95.9298 1318.93,97.9072 1321.03,99.9941 1323.12,101.966 1325.21,103.739 1327.3,105.322 1329.39,106.815 
  1331.49,108.51 1333.58,110.945 1335.67,115.043 1337.76,122.08 1339.85,133.627 1341.95,151.38 1344.04,176.913 1346.13,211.548 1348.22,256.112 1350.31,311.459 
  1352.41,378.069 1354.5,455.575 1356.59,542.768 1358.68,637.358 1360.77,735.624 1362.87,832.695 1364.96,923.722 1367.05,1005.88 1369.14,1077.6 1371.23,1138.54 
  1373.33,1188.68 1375.42,1228.47 1377.51,1258.73 1379.6,1280.59 1381.69,1295.38 1383.79,1304.57 1385.88,1309.69 1387.97,1312.11 1390.06,1312.88 1392.16,1312.75 
  1394.25,1312.18 1396.34,1311.41 1398.43,1310.54 1400.52,1309.55 1402.62,1308.26 1404.71,1306.36 1406.8,1303.22 1408.89,1297.94 1410.98,1289.29 1413.08,1275.8 
  
  "/>
<polyline clip-path="url(#clip612)" style="stroke:#e26f46; stroke-linecap:butt; stroke-linejoin:round; stroke-width:16; stroke-opacity:1; fill:none" points="
  369.161,1304.32 371.253,1304.32 373.345,1304.26 375.437,1303.96 377.529,1303.04 379.621,1300.81 381.713,1296.27 383.805,1288.11 385.897,1274.81 387.989,1254.81 
  390.081,1226.69 392.173,1189.26 394.265,1141.65 396.357,1083.27 398.449,1014.03 400.541,934.308 402.633,845.356 404.725,749.841 406.817,651.898 408.909,556.162 
  411.001,467.255 413.093,387.684 415.185,318.647 417.277,260.509 419.369,213.168 421.461,176.074 423.553,148.306 425.645,128.654 427.737,115.667 429.829,107.717 
  431.921,103.255 434.013,100.975 436.105,99.8468 438.197,99.1976 440.289,98.6687 442.381,98.0876 444.473,97.4181 446.565,96.7093 448.657,96.1504 450.749,96.1223 
  452.841,97.3031 454.933,100.71 457.025,107.708 459.117,119.821 461.209,138.611 463.301,165.613 465.393,202.022 467.485,248.762 469.577,306.337 471.669,374.903 
  473.761,454.303 475.853,543.303 477.945,639.393 480.037,738.408 482.129,835.529 484.221,925.977 486.313,1007.07 488.405,1077.5 490.497,1136.88 492.589,1185.28 
  494.681,1223.2 496.773,1251.53 498.865,1271.44 500.957,1284.36 503.049,1291.92 505.141,1295.74 507.233,1297.19 509.325,1297.36 511.417,1297.01 513.509,1296.55 
  515.601,1296.17 517.693,1295.94 519.785,1295.84 521.877,1295.72 523.969,1295.26 526.062,1293.87 528.154,1290.57 530.246,1284.08 532.338,1272.89 534.43,1255.31 
  536.522,1229.78 538.614,1195.05 540.706,1150.16 542.798,1094.57 544.89,1027.79 546.982,950.118 549.074,862.677 551.166,767.706 553.258,669.024 555.35,571.649 
  557.442,480.244 559.534,397.835 561.626,325.908 563.718,264.882 565.81,214.782 567.902,175.161 569.994,145.19 572.086,123.752 574.178,109.492 576.27,100.853 
  578.362,96.236 580.454,94.2658 582.546,93.8464 584.638,94.1734 586.73,94.7862 588.822,95.4443 590.914,96.0585 593.006,96.6522 595.098,97.3514 597.19,98.4658 
  599.282,100.562 601.374,104.547 603.466,111.656 605.558,123.385 607.65,141.338 609.742,166.988 611.834,201.615 613.926,246.091 616.018,301.311 618.11,367.599 
  620.202,444.535 622.294,531.08 624.386,625.043 626.478,722.712 628.57,819.286 630.662,910.319 632.754,992.307 634.846,1063.45 636.938,1123.61 639.03,1173.07 
  641.122,1212.24 643.214,1241.97 645.306,1263.44 647.398,1278.09 649.49,1287.42 651.582,1293 653.674,1296.29 655.766,1298.3 657.858,1299.73 659.95,1300.97 
  662.042,1302.2 664.134,1303.49 666.226,1304.8 668.318,1305.94 670.41,1306.54 672.502,1305.98 674.594,1303.27 676.686,1297.11 678.778,1286 680.87,1268.35 
  682.963,1242.67 685.055,1207.7 687.147,1162.51 689.239,1106.58 691.331,1039.5 693.423,961.422 695.515,873.436 697.607,777.844 699.699,678.452 701.791,580.119 
  703.883,488.056 705.975,405.117 708.067,332.831 710.159,271.645 712.251,221.572 714.343,182.185 716.435,152.642 718.527,131.784 720.619,118.178 722.711,110.211 
  724.803,106.161 726.895,104.558 728.987,104.262 731.079,104.472 733.171,104.735 735.263,104.838 737.355,104.705 739.447,104.349 741.539,103.882 743.631,103.579 
  745.723,103.98 747.815,105.972 749.907,110.835 751.999,120.112 754.091,135.482 756.183,158.559 758.275,190.719 760.367,233.001 762.459,286.041 764.551,350.362 
  766.643,425.858 768.735,511.649 770.827,605.879 772.919,705.018 775.011,804.14 777.103,898.277 779.195,983.745 781.287,1058.63 783.379,1122.6 785.471,1175.48 
  787.563,1217.63 789.655,1249.78 791.747,1272.98 793.839,1288.54 795.931,1297.96 798.023,1302.9 800.115,1304.83 802.207,1304.94 804.299,1304.12 806.391,1302.95 
  808.483,1301.71 810.575,1300.54 812.667,1299.45 814.759,1298.35 816.851,1297.02 818.943,1294.98 821.035,1291.43 823.127,1285.23 825.219,1274.94 827.311,1258.93 
  829.403,1235.65 831.495,1203.72 833.587,1162.18 835.679,1110.21 837.771,1047.13 839.864,973.045 841.956,888.91 844.048,796.571 846.14,699.319 848.232,601.681 
  850.324,508.739 852.416,423.85 854.508,349.038 856.6,284.932 858.692,231.64 860.784,188.873 862.876,155.91 864.968,131.691 867.06,114.899 869.152,104.072 
  871.244,97.6357 873.336,94.108 875.428,92.3565 877.52,91.5462 879.612,91.1503 881.704,90.898 883.796,90.6711 885.888,90.4767 887.98,90.4294 890.072,90.8111 
  892.164,92.1413 894.256,95.2622 896.348,101.337 898.44,111.813 900.532,128.252 902.624,152.118 904.716,184.756 906.808,227.192 908.9,280.213 910.992,344.184 
  913.084,418.918 915.176,503.69 917.268,596.591 919.36,694.25 921.452,791.88 923.544,884.693 925.636,969.272 927.728,1043.67 929.82,1107.25 931.912,1159.88 
  934.004,1201.93 936.096,1234.17 938.188,1257.65 940.28,1273.74 942.372,1284.04 944.464,1290.19 946.556,1293.61 948.648,1295.47 950.74,1296.66 952.832,1297.62 
  954.924,1298.62 957.016,1299.74 959.108,1300.96 961.2,1302.16 963.292,1303.08 965.384,1303.18 967.476,1301.6 969.568,1297.13 971.66,1288.3 973.752,1273.45 
  975.844,1251.07 977.936,1219.81 980.028,1178.68 982.12,1126.8 984.212,1063.58 986.304,989.181 988.396,904.413 990.488,810.93 992.58,712.081 994.672,612.63 
  996.765,517.469 998.857,430.753 1000.95,354.952 1003.04,290.592 1005.13,237.264 1007.22,194.763 1009.32,162.376 1011.41,139.013 1013.5,123.272 1015.59,113.601 
  1017.68,108.351 1019.78,105.844 1021.87,104.849 1023.96,104.506 1026.05,104.282 1028.14,103.934 1030.24,103.351 1032.33,102.524 1034.42,101.551 1036.51,100.653 
  1038.6,100.297 1040.7,101.278 1042.79,104.789 1044.88,112.279 1046.97,125.42 1049.06,145.946 1051.16,175.257 1053.25,214.506 1055.34,264.389 1057.43,325.49 
  1059.52,398.05 1061.62,481.419 1063.71,574.024 1065.8,672.849 1067.89,773.39 1069.98,870.149 1072.08,959.046 1074.17,1037.78 1076.26,1105.48 1078.35,1161.95 
  1080.45,1207.37 1082.54,1242.38 1084.63,1267.95 1086.72,1285.33 1088.81,1296 1090.91,1301.6 1093,1303.75 1095.09,1303.77 1097.18,1302.67 1099.27,1301.15 
  1101.37,1299.56 1103.46,1298.09 1105.55,1296.78 1107.64,1295.6 1109.73,1294.4 1111.83,1292.79 1113.92,1290.15 1116.01,1285.42 1118.1,1277.25 1120.19,1264.03 
  1122.29,1244.08 1124.38,1215.91 1126.47,1178.33 1128.56,1130.58 1130.65,1071.81 1132.75,1001.81 1134.84,921.192 1136.93,831.402 1139.02,735.129 1141.11,636.509 
  1143.21,540.713 1145.3,451.875 1147.39,372.589 1149.48,303.961 1151.57,246.178 1153.67,199.147 1155.76,162.3 1157.85,134.702 1159.94,115.142 1162.03,102.22 
  1164.13,94.4072 1166.22,90.1387 1168.31,88.1522 1170.4,87.4793 1172.49,87.4553 1174.59,87.7058 1176.68,88.048 1178.77,88.4329 1180.86,88.925 1182.95,89.7224 
  1185.05,91.2289 1187.14,94.1428 1189.23,99.4896 1191.32,108.596 1193.41,122.992 1195.51,144.215 1197.6,173.657 1199.69,212.414 1201.78,261.44 1203.87,321.376 
  1205.97,392.196 1208.06,473.287 1210.15,563.299 1212.24,659.392 1214.33,757.295 1216.43,852.062 1218.52,939.589 1220.61,1017.37 1222.7,1084.45 1224.79,1140.69 
  1226.89,1186.26 1228.98,1221.81 1231.07,1248.33 1233.16,1267.13 1235.25,1279.68 1237.35,1287.61 1239.44,1292.5 1241.53,1295.58 1243.62,1297.73 1245.71,1299.54 
  1247.81,1301.29 1249.9,1303.12 1251.99,1305.03 1254.08,1306.91 1256.17,1308.54 1258.27,1309.44 1260.36,1308.83 1262.45,1305.54 1264.54,1298.24 1266.63,1285.46 
  1268.73,1265.65 1270.82,1237.15 1272.91,1198.8 1275,1149.85 1277.09,1089.83 1279.19,1018.66 1281.28,936.606 1283.37,845.071 1285.46,746.751 1287.55,646.317 
  1289.65,548.834 1291.74,458.632 1293.83,378.487 1295.92,309.395 1298.01,251.649 1300.11,205.052 1302.2,169.059 1304.29,142.737 1306.38,124.802 1308.47,113.706 
  1310.57,107.789 1312.66,105.343 1314.75,104.896 1316.84,105.406 1318.93,106.178 1321.03,106.851 1323.12,107.258 1325.21,107.345 1327.3,107.151 1329.39,106.803 
  1331.49,106.624 1333.58,107.22 1335.67,109.59 1337.76,115.112 1339.85,125.461 1341.95,142.323 1344.04,167.268 1346.13,201.682 1348.22,246.535 1350.31,302.503 
  1352.41,369.762 1354.5,448.058 1356.59,536.47 1358.68,632.694 1360.77,732.77 1362.87,831.466 1364.96,924.319 1367.05,1007.92 1369.14,1080.8 1371.23,1142.49 
  1373.33,1193.09 1375.42,1233.03 1377.51,1263.11 1379.6,1284.42 1381.69,1298.34 1383.79,1306.4 1385.88,1310.13 1387.97,1311.02 1390.06,1310.24 1392.16,1308.59 
  1394.25,1306.6 1396.34,1304.52 1398.43,1302.49 1400.52,1300.51 1402.62,1298.47 1404.71,1296.11 1406.8,1292.91 1408.89,1288.02 1410.98,1280.24 1413.08,1268.1 
  
  "/>
<path clip-path="url(#clip610)" d="
M1511.56 440.581 L2352.76 440.581 L2352.76 90.6606 L1511.56 90.6606  Z
  " fill="#ffffff" fill-rule="evenodd" fill-opacity="1"/>
<polyline clip-path="url(#clip610)" style="stroke:#000000; stroke-linecap:butt; stroke-linejoin:round; stroke-width:4; stroke-opacity:1; fill:none" points="
  1511.56,440.581 2352.76,440.581 2352.76,90.6606 1511.56,90.6606 1511.56,440.581 
  "/>
<polyline clip-path="url(#clip610)" style="stroke:#009af9; stroke-linecap:butt; stroke-linejoin:round; stroke-width:9; stroke-opacity:1; fill:none" points="
  1533.94,207.301 1668.27,207.301 
  "/>
<path clip-path="url(#clip610)" d="M1735.24 193.422 Q1735.24 202.276 1732.4 212.236 Q1729.61 222.144 1725.18 230.155 Q1720.75 238.112 1714.95 243.382 Q1709.16 248.6 1703.62 248.6 Q1700.09 248.6 1697.46 246.65 Q1694.88 244.647 1693.45 241.327 Q1692.03 237.954 1691.34 234.265 Q1690.66 230.523 1690.66 226.466 Q1690.66 220.405 1691.98 213.817 Q1693.29 207.177 1695.51 201.169 Q1697.72 195.109 1700.83 189.628 Q1703.94 184.094 1707.37 180.089 Q1710.84 176.031 1714.74 173.66 Q1718.64 171.288 1722.28 171.288 Q1724.92 171.288 1727.02 172.448 Q1729.18 173.554 1730.55 175.504 Q1731.92 177.401 1732.87 179.667 Q1733.87 181.934 1734.35 184.569 Q1734.82 187.151 1735.03 189.312 Q1735.24 191.42 1735.24 193.422 M1728.13 186.729 Q1728.13 184.042 1727.92 182.039 Q1727.71 179.984 1727.13 177.928 Q1726.55 175.873 1725.28 174.766 Q1724.07 173.66 1722.17 173.66 Q1716.64 173.66 1710.42 184.99 Q1708.42 188.521 1706.63 193.317 Q1704.84 198.113 1704.2 200.379 Q1703.57 202.645 1702.1 208.231 L1724.65 208.231 Q1728.13 193.844 1728.13 186.729 M1723.7 211.657 L1701.25 211.657 Q1697.77 224.832 1697.77 233.053 Q1697.77 240.22 1699.25 243.224 Q1700.78 246.176 1703.62 246.176 Q1706.89 246.176 1709.95 242.908 Q1713 239.588 1716.11 233.58 Q1720.22 225.78 1723.7 211.657 Z" fill="#000000" fill-rule="evenodd" fill-opacity="1" /><path clip-path="url(#clip610)" d="M1746.34 278.489 Q1746.34 277.125 1746.45 276.719 Q1746.59 276.313 1747.18 275.686 L1761.68 259.528 Q1769.61 250.6 1769.61 242.817 Q1769.61 237.763 1766.96 234.147 Q1764.34 230.532 1759.51 230.532 Q1756.19 230.532 1753.38 232.561 Q1750.58 234.59 1749.29 238.205 Q1749.51 238.131 1750.28 238.131 Q1752.16 238.131 1753.2 239.312 Q1754.27 240.492 1754.27 242.079 Q1754.27 244.108 1752.94 245.104 Q1751.65 246.063 1750.36 246.063 Q1749.84 246.063 1749.14 245.952 Q1748.48 245.842 1747.41 244.809 Q1746.34 243.739 1746.34 241.857 Q1746.34 236.582 1750.32 232.377 Q1754.34 228.171 1760.46 228.171 Q1767.4 228.171 1771.94 232.303 Q1776.51 236.398 1776.51 242.817 Q1776.51 245.067 1775.81 247.133 Q1775.15 249.162 1774.23 250.748 Q1773.34 252.334 1770.9 254.88 Q1768.47 257.425 1766.51 259.233 Q1764.56 261.04 1760.17 264.877 L1752.16 272.661 L1765.78 272.661 Q1772.42 272.661 1772.93 272.071 Q1773.67 271.001 1774.59 265.357 L1776.51 265.357 L1774.37 278.489 L1746.34 278.489 Z" fill="#000000" fill-rule="evenodd" fill-opacity="1" /><path clip-path="url(#clip610)" d="M1787.74 220.405 Q1787.74 202.171 1794.54 187.467 Q1797.43 181.301 1801.49 176.137 Q1805.55 170.972 1808.24 168.706 Q1810.93 166.44 1811.66 166.44 Q1812.72 166.44 1812.77 167.494 Q1812.77 168.021 1811.35 169.338 Q1793.96 187.046 1794.01 220.405 Q1794.01 253.87 1810.93 270.892 Q1812.77 272.737 1812.77 273.316 Q1812.77 274.37 1811.66 274.37 Q1810.93 274.37 1808.34 272.21 Q1805.76 270.049 1801.76 265.095 Q1797.75 260.141 1794.85 254.081 Q1787.74 239.377 1787.74 220.405 Z" fill="#000000" fill-rule="evenodd" fill-opacity="1" /><path clip-path="url(#clip610)" d="M1823.13 212.869 Q1823.13 197.006 1827.14 188.363 Q1832.72 175.504 1845.9 175.504 Q1848.69 175.504 1851.59 176.295 Q1854.54 177.032 1858.23 179.931 Q1861.97 182.83 1864.24 187.573 Q1868.56 196.742 1868.56 212.869 Q1868.56 228.626 1864.55 237.216 Q1858.7 249.759 1845.79 249.759 Q1840.94 249.759 1835.99 247.282 Q1831.09 244.805 1827.98 238.85 Q1823.13 229.944 1823.13 212.869 M1832.09 211.551 Q1832.09 227.836 1833.25 234.318 Q1834.57 241.327 1838.15 244.384 Q1841.79 247.388 1845.79 247.388 Q1850.11 247.388 1853.7 244.173 Q1857.33 240.905 1858.44 233.896 Q1859.65 226.993 1859.6 211.551 Q1859.6 196.532 1858.54 190.524 Q1857.12 183.515 1853.33 180.721 Q1849.59 177.876 1845.79 177.876 Q1844.37 177.876 1842.84 178.297 Q1841.36 178.719 1839.2 179.931 Q1837.04 181.143 1835.36 184.147 Q1833.72 187.151 1832.93 191.683 Q1832.09 197.533 1832.09 211.551 Z" fill="#000000" fill-rule="evenodd" fill-opacity="1" /><path clip-path="url(#clip610)" d="M1879.17 273.316 Q1879.17 272.789 1880.54 271.472 Q1897.93 253.764 1897.93 220.405 Q1897.93 186.94 1881.22 170.023 Q1879.17 168.073 1879.17 167.494 Q1879.17 166.44 1880.22 166.44 Q1880.96 166.44 1883.54 168.6 Q1886.18 170.761 1890.13 175.715 Q1894.13 180.669 1897.09 186.729 Q1904.2 201.433 1904.2 220.405 Q1904.2 238.639 1897.4 253.343 Q1894.5 259.509 1890.45 264.673 Q1886.39 269.838 1883.7 272.104 Q1881.01 274.37 1880.22 274.37 Q1879.17 274.37 1879.17 273.316 Z" fill="#000000" fill-rule="evenodd" fill-opacity="1" /><path clip-path="url(#clip610)" d="M1950.55 230.998 Q1950.66 229.68 1952.71 229.68 L2018.85 229.68 Q2021.96 229.68 2022.01 230.892 Q2022.01 232.21 2019.06 232.157 L1953.45 232.157 Q1950.55 232.21 1950.55 230.998 M1950.55 209.918 Q1950.55 208.6 1952.82 208.653 L2018.75 208.653 Q2021.96 208.653 2022.01 209.918 Q2022.01 211.13 2019.27 211.13 L1952.71 211.13 Q1950.55 211.13 1950.55 209.918 Z" fill="#000000" fill-rule="evenodd" fill-opacity="1" /><path clip-path="url(#clip610)" d="M2063.64 247.388 Q2063.64 245.438 2063.8 244.858 Q2064.01 244.278 2064.85 243.382 L2085.56 220.3 Q2096.89 207.546 2096.89 196.426 Q2096.89 189.206 2093.1 184.042 Q2089.36 178.877 2082.45 178.877 Q2077.71 178.877 2073.7 181.775 Q2069.7 184.674 2067.85 189.839 Q2068.17 189.733 2069.28 189.733 Q2071.96 189.733 2073.44 191.42 Q2074.97 193.106 2074.97 195.372 Q2074.97 198.271 2073.07 199.694 Q2071.23 201.064 2069.38 201.064 Q2068.64 201.064 2067.64 200.906 Q2066.69 200.748 2065.17 199.272 Q2063.64 197.744 2063.64 195.056 Q2063.64 187.52 2069.33 181.512 Q2075.07 175.504 2083.82 175.504 Q2093.73 175.504 2100.21 181.407 Q2106.75 187.256 2106.75 196.426 Q2106.75 199.641 2105.74 202.592 Q2104.8 205.491 2103.48 207.757 Q2102.21 210.023 2098.74 213.659 Q2095.26 217.296 2092.46 219.878 Q2089.67 222.46 2083.4 227.941 L2071.96 239.061 L2091.41 239.061 Q2100.9 239.061 2101.63 238.218 Q2102.69 236.689 2104.01 228.626 L2106.75 228.626 L2103.69 247.388 L2063.64 247.388 Z" fill="#000000" fill-rule="evenodd" fill-opacity="1" /><path clip-path="url(#clip610)" d="M2118.72 245.649 Q2117.08 243.909 2117.08 241.643 Q2117.08 239.377 2118.72 237.743 Q2120.35 236.057 2122.83 236.057 Q2125.2 236.057 2126.78 237.638 Q2128.41 239.166 2128.41 241.696 Q2128.41 244.173 2126.67 245.807 Q2124.99 247.388 2122.83 247.388 Q2120.35 247.388 2118.72 245.649 Z" fill="#000000" fill-rule="evenodd" fill-opacity="1" /><path clip-path="url(#clip610)" d="M2146.78 212.869 Q2146.78 197.006 2150.79 188.363 Q2156.37 175.504 2169.55 175.504 Q2172.34 175.504 2175.24 176.295 Q2178.19 177.032 2181.88 179.931 Q2185.62 182.83 2187.89 187.573 Q2192.21 196.742 2192.21 212.869 Q2192.21 228.626 2188.2 237.216 Q2182.35 249.759 2169.44 249.759 Q2164.59 249.759 2159.64 247.282 Q2154.74 244.805 2151.63 238.85 Q2146.78 229.944 2146.78 212.869 M2155.74 211.551 Q2155.74 227.836 2156.9 234.318 Q2158.22 241.327 2161.8 244.384 Q2165.44 247.388 2169.44 247.388 Q2173.76 247.388 2177.35 244.173 Q2180.98 240.905 2182.09 233.896 Q2183.3 226.993 2183.25 211.551 Q2183.25 196.532 2182.19 190.524 Q2180.77 183.515 2176.98 180.721 Q2173.24 177.876 2169.44 177.876 Q2168.02 177.876 2166.49 178.297 Q2165.01 178.719 2162.85 179.931 Q2160.69 181.143 2159.01 184.147 Q2157.37 187.151 2156.58 191.683 Q2155.74 197.533 2155.74 211.551 Z" fill="#000000" fill-rule="evenodd" fill-opacity="1" /><path clip-path="url(#clip610)" d="M2200.66 212.869 Q2200.66 197.006 2204.66 188.363 Q2210.25 175.504 2223.42 175.504 Q2226.22 175.504 2229.12 176.295 Q2232.07 177.032 2235.76 179.931 Q2239.5 182.83 2241.76 187.573 Q2246.09 196.742 2246.09 212.869 Q2246.09 228.626 2242.08 237.216 Q2236.23 249.759 2223.32 249.759 Q2218.47 249.759 2213.52 247.282 Q2208.62 244.805 2205.51 238.85 Q2200.66 229.944 2200.66 212.869 M2209.62 211.551 Q2209.62 227.836 2210.78 234.318 Q2212.09 241.327 2215.68 244.384 Q2219.31 247.388 2223.32 247.388 Q2227.64 247.388 2231.22 244.173 Q2234.86 240.905 2235.97 233.896 Q2237.18 226.993 2237.13 211.551 Q2237.13 196.532 2236.07 190.524 Q2234.65 183.515 2230.85 180.721 Q2227.11 177.876 2223.32 177.876 Q2221.9 177.876 2220.37 178.297 Q2218.89 178.719 2216.73 179.931 Q2214.57 181.143 2212.88 184.147 Q2211.25 187.151 2210.46 191.683 Q2209.62 197.533 2209.62 211.551 Z" fill="#000000" fill-rule="evenodd" fill-opacity="1" /><path clip-path="url(#clip610)" d="M2254.53 212.869 Q2254.53 197.006 2258.54 188.363 Q2264.13 175.504 2277.3 175.504 Q2280.09 175.504 2282.99 176.295 Q2285.94 177.032 2289.63 179.931 Q2293.38 182.83 2295.64 187.573 Q2299.96 196.742 2299.96 212.869 Q2299.96 228.626 2295.96 237.216 Q2290.11 249.759 2277.2 249.759 Q2272.35 249.759 2267.39 247.282 Q2262.49 244.805 2259.38 238.85 Q2254.53 229.944 2254.53 212.869 M2263.49 211.551 Q2263.49 227.836 2264.65 234.318 Q2265.97 241.327 2269.55 244.384 Q2273.19 247.388 2277.2 247.388 Q2281.52 247.388 2285.1 244.173 Q2288.74 240.905 2289.84 233.896 Q2291.06 226.993 2291 211.551 Q2291 196.532 2289.95 190.524 Q2288.53 183.515 2284.73 180.721 Q2280.99 177.876 2277.2 177.876 Q2275.77 177.876 2274.24 178.297 Q2272.77 178.719 2270.61 179.931 Q2268.45 181.143 2266.76 184.147 Q2265.13 187.151 2264.34 191.683 Q2263.49 197.533 2263.49 211.551 Z" fill="#000000" fill-rule="evenodd" fill-opacity="1" /><polyline clip-path="url(#clip610)" style="stroke:#e26f46; stroke-linecap:butt; stroke-linejoin:round; stroke-width:9; stroke-opacity:1; fill:none" points="
  1533.94,323.941 1668.27,323.941 
  "/>
<path clip-path="url(#clip610)" d="M1735.24 310.062 Q1735.24 318.916 1732.4 328.876 Q1729.61 338.784 1725.18 346.795 Q1720.75 354.752 1714.95 360.022 Q1709.16 365.24 1703.62 365.24 Q1700.09 365.24 1697.46 363.29 Q1694.88 361.287 1693.45 357.967 Q1692.03 354.594 1691.34 350.905 Q1690.66 347.163 1690.66 343.106 Q1690.66 337.045 1691.98 330.457 Q1693.29 323.817 1695.51 317.809 Q1697.72 311.749 1700.83 306.268 Q1703.94 300.734 1707.37 296.729 Q1710.84 292.671 1714.74 290.3 Q1718.64 287.928 1722.28 287.928 Q1724.92 287.928 1727.02 289.088 Q1729.18 290.194 1730.55 292.144 Q1731.92 294.041 1732.87 296.307 Q1733.87 298.574 1734.35 301.209 Q1734.82 303.791 1735.03 305.952 Q1735.24 308.06 1735.24 310.062 M1728.13 303.369 Q1728.13 300.682 1727.92 298.679 Q1727.71 296.624 1727.13 294.568 Q1726.55 292.513 1725.28 291.406 Q1724.07 290.3 1722.17 290.3 Q1716.64 290.3 1710.42 301.63 Q1708.42 305.161 1706.63 309.957 Q1704.84 314.753 1704.2 317.019 Q1703.57 319.285 1702.1 324.871 L1724.65 324.871 Q1728.13 310.484 1728.13 303.369 M1723.7 328.297 L1701.25 328.297 Q1697.77 341.472 1697.77 349.693 Q1697.77 356.86 1699.25 359.864 Q1700.78 362.816 1703.62 362.816 Q1706.89 362.816 1709.95 359.548 Q1713 356.228 1716.11 350.22 Q1720.22 342.42 1723.7 328.297 Z" fill="#000000" fill-rule="evenodd" fill-opacity="1" /><path clip-path="url(#clip610)" d="M1746.34 395.129 Q1746.34 393.765 1746.45 393.359 Q1746.59 392.953 1747.18 392.326 L1761.68 376.168 Q1769.61 367.24 1769.61 359.457 Q1769.61 354.403 1766.96 350.787 Q1764.34 347.172 1759.51 347.172 Q1756.19 347.172 1753.38 349.201 Q1750.58 351.23 1749.29 354.845 Q1749.51 354.771 1750.28 354.771 Q1752.16 354.771 1753.2 355.952 Q1754.27 357.132 1754.27 358.719 Q1754.27 360.748 1752.94 361.744 Q1751.65 362.703 1750.36 362.703 Q1749.84 362.703 1749.14 362.592 Q1748.48 362.482 1747.41 361.449 Q1746.34 360.379 1746.34 358.497 Q1746.34 353.222 1750.32 349.017 Q1754.34 344.811 1760.46 344.811 Q1767.4 344.811 1771.94 348.943 Q1776.51 353.038 1776.51 359.457 Q1776.51 361.707 1775.81 363.773 Q1775.15 365.802 1774.23 367.388 Q1773.34 368.974 1770.9 371.52 Q1768.47 374.065 1766.51 375.873 Q1764.56 377.68 1760.17 381.517 L1752.16 389.301 L1765.78 389.301 Q1772.42 389.301 1772.93 388.711 Q1773.67 387.641 1774.59 381.997 L1776.51 381.997 L1774.37 395.129 L1746.34 395.129 Z" fill="#000000" fill-rule="evenodd" fill-opacity="1" /><path clip-path="url(#clip610)" d="M1787.74 337.045 Q1787.74 318.811 1794.54 304.107 Q1797.43 297.941 1801.49 292.777 Q1805.55 287.612 1808.24 285.346 Q1810.93 283.08 1811.66 283.08 Q1812.72 283.08 1812.77 284.134 Q1812.77 284.661 1811.35 285.978 Q1793.96 303.686 1794.01 337.045 Q1794.01 370.51 1810.93 387.532 Q1812.77 389.377 1812.77 389.956 Q1812.77 391.01 1811.66 391.01 Q1810.93 391.01 1808.34 388.85 Q1805.76 386.689 1801.76 381.735 Q1797.75 376.781 1794.85 370.721 Q1787.74 356.017 1787.74 337.045 Z" fill="#000000" fill-rule="evenodd" fill-opacity="1" /><path clip-path="url(#clip610)" d="M1823.13 329.509 Q1823.13 313.646 1827.14 305.003 Q1832.72 292.144 1845.9 292.144 Q1848.69 292.144 1851.59 292.935 Q1854.54 293.672 1858.23 296.571 Q1861.97 299.47 1864.24 304.213 Q1868.56 313.382 1868.56 329.509 Q1868.56 345.266 1864.55 353.856 Q1858.7 366.399 1845.79 366.399 Q1840.94 366.399 1835.99 363.922 Q1831.09 361.445 1827.98 355.49 Q1823.13 346.584 1823.13 329.509 M1832.09 328.191 Q1832.09 344.476 1833.25 350.958 Q1834.57 357.967 1838.15 361.024 Q1841.79 364.028 1845.79 364.028 Q1850.11 364.028 1853.7 360.813 Q1857.33 357.545 1858.44 350.536 Q1859.65 343.633 1859.6 328.191 Q1859.6 313.172 1858.54 307.164 Q1857.12 300.155 1853.33 297.361 Q1849.59 294.516 1845.79 294.516 Q1844.37 294.516 1842.84 294.937 Q1841.36 295.359 1839.2 296.571 Q1837.04 297.783 1835.36 300.787 Q1833.72 303.791 1832.93 308.323 Q1832.09 314.173 1832.09 328.191 Z" fill="#000000" fill-rule="evenodd" fill-opacity="1" /><path clip-path="url(#clip610)" d="M1879.17 389.956 Q1879.17 389.429 1880.54 388.112 Q1897.93 370.404 1897.93 337.045 Q1897.93 303.58 1881.22 286.663 Q1879.17 284.713 1879.17 284.134 Q1879.17 283.08 1880.22 283.08 Q1880.96 283.08 1883.54 285.24 Q1886.18 287.401 1890.13 292.355 Q1894.13 297.309 1897.09 303.369 Q1904.2 318.073 1904.2 337.045 Q1904.2 355.279 1897.4 369.983 Q1894.5 376.149 1890.45 381.313 Q1886.39 386.478 1883.7 388.744 Q1881.01 391.01 1880.22 391.01 Q1879.17 391.01 1879.17 389.956 Z" fill="#000000" fill-rule="evenodd" fill-opacity="1" /><path clip-path="url(#clip610)" d="M1950.55 347.638 Q1950.66 346.32 1952.71 346.32 L2018.85 346.32 Q2021.96 346.32 2022.01 347.532 Q2022.01 348.85 2019.06 348.797 L1953.45 348.797 Q1950.55 348.85 1950.55 347.638 M1950.55 326.558 Q1950.55 325.24 1952.82 325.293 L2018.75 325.293 Q2021.96 325.293 2022.01 326.558 Q2022.01 327.77 2019.27 327.77 L1952.71 327.77 Q1950.55 327.77 1950.55 326.558 Z" fill="#000000" fill-rule="evenodd" fill-opacity="1" /><path clip-path="url(#clip610)" d="M2063.64 364.028 Q2063.64 362.078 2063.8 361.498 Q2064.01 360.918 2064.85 360.022 L2085.56 336.94 Q2096.89 324.186 2096.89 313.066 Q2096.89 305.846 2093.1 300.682 Q2089.36 295.517 2082.45 295.517 Q2077.71 295.517 2073.7 298.415 Q2069.7 301.314 2067.85 306.479 Q2068.17 306.373 2069.28 306.373 Q2071.96 306.373 2073.44 308.06 Q2074.97 309.746 2074.97 312.012 Q2074.97 314.911 2073.07 316.334 Q2071.23 317.704 2069.38 317.704 Q2068.64 317.704 2067.64 317.546 Q2066.69 317.388 2065.17 315.912 Q2063.64 314.384 2063.64 311.696 Q2063.64 304.16 2069.33 298.152 Q2075.07 292.144 2083.82 292.144 Q2093.73 292.144 2100.21 298.047 Q2106.75 303.896 2106.75 313.066 Q2106.75 316.281 2105.74 319.232 Q2104.8 322.131 2103.48 324.397 Q2102.21 326.663 2098.74 330.299 Q2095.26 333.936 2092.46 336.518 Q2089.67 339.1 2083.4 344.581 L2071.96 355.701 L2091.41 355.701 Q2100.9 355.701 2101.63 354.858 Q2102.69 353.329 2104.01 345.266 L2106.75 345.266 L2103.69 364.028 L2063.64 364.028 Z" fill="#000000" fill-rule="evenodd" fill-opacity="1" /><path clip-path="url(#clip610)" d="M2118.72 362.289 Q2117.08 360.549 2117.08 358.283 Q2117.08 356.017 2118.72 354.383 Q2120.35 352.697 2122.83 352.697 Q2125.2 352.697 2126.78 354.278 Q2128.41 355.806 2128.41 358.336 Q2128.41 360.813 2126.67 362.447 Q2124.99 364.028 2122.83 364.028 Q2120.35 364.028 2118.72 362.289 Z" fill="#000000" fill-rule="evenodd" fill-opacity="1" /><path clip-path="url(#clip610)" d="M2146.78 329.509 Q2146.78 313.646 2150.79 305.003 Q2156.37 292.144 2169.55 292.144 Q2172.34 292.144 2175.24 292.935 Q2178.19 293.672 2181.88 296.571 Q2185.62 299.47 2187.89 304.213 Q2192.21 313.382 2192.21 329.509 Q2192.21 345.266 2188.2 353.856 Q2182.35 366.399 2169.44 366.399 Q2164.59 366.399 2159.64 363.922 Q2154.74 361.445 2151.63 355.49 Q2146.78 346.584 2146.78 329.509 M2155.74 328.191 Q2155.74 344.476 2156.9 350.958 Q2158.22 357.967 2161.8 361.024 Q2165.44 364.028 2169.44 364.028 Q2173.76 364.028 2177.35 360.813 Q2180.98 357.545 2182.09 350.536 Q2183.3 343.633 2183.25 328.191 Q2183.25 313.172 2182.19 307.164 Q2180.77 300.155 2176.98 297.361 Q2173.24 294.516 2169.44 294.516 Q2168.02 294.516 2166.49 294.937 Q2165.01 295.359 2162.85 296.571 Q2160.69 297.783 2159.01 300.787 Q2157.37 303.791 2156.58 308.323 Q2155.74 314.173 2155.74 328.191 Z" fill="#000000" fill-rule="evenodd" fill-opacity="1" /><path clip-path="url(#clip610)" d="M2200.66 329.509 Q2200.66 313.646 2204.66 305.003 Q2210.25 292.144 2223.42 292.144 Q2226.22 292.144 2229.12 292.935 Q2232.07 293.672 2235.76 296.571 Q2239.5 299.47 2241.76 304.213 Q2246.09 313.382 2246.09 329.509 Q2246.09 345.266 2242.08 353.856 Q2236.23 366.399 2223.32 366.399 Q2218.47 366.399 2213.52 363.922 Q2208.62 361.445 2205.51 355.49 Q2200.66 346.584 2200.66 329.509 M2209.62 328.191 Q2209.62 344.476 2210.78 350.958 Q2212.09 357.967 2215.68 361.024 Q2219.31 364.028 2223.32 364.028 Q2227.64 364.028 2231.22 360.813 Q2234.86 357.545 2235.97 350.536 Q2237.18 343.633 2237.13 328.191 Q2237.13 313.172 2236.07 307.164 Q2234.65 300.155 2230.85 297.361 Q2227.11 294.516 2223.32 294.516 Q2221.9 294.516 2220.37 294.937 Q2218.89 295.359 2216.73 296.571 Q2214.57 297.783 2212.88 300.787 Q2211.25 303.791 2210.46 308.323 Q2209.62 314.173 2209.62 328.191 Z" fill="#000000" fill-rule="evenodd" fill-opacity="1" /><path clip-path="url(#clip610)" d="M2250.92 302.421 L2250.92 299.048 Q2263.89 299.048 2270.58 292.144 Q2272.42 292.144 2272.74 292.566 Q2273.06 292.987 2273.06 294.937 L2273.06 355.49 Q2273.06 358.705 2274.64 359.706 Q2276.22 360.707 2283.12 360.707 L2286.55 360.707 L2286.55 364.028 Q2282.75 363.711 2269.05 363.711 Q2255.35 363.711 2251.61 364.028 L2251.61 360.707 L2255.03 360.707 Q2261.83 360.707 2263.47 359.759 Q2265.1 358.758 2265.1 355.49 L2265.1 299.575 Q2259.46 302.421 2250.92 302.421 Z" fill="#000000" fill-rule="evenodd" fill-opacity="1" /></svg>