<?xml version="1.0" encoding="utf-8"?>
<svg xmlns="http://www.w3.org/2000/svg" xmlns:xlink="http://www.w3.org/1999/xlink" width="600" height="400" viewBox="0 0 2400 1600">
<defs>
  <clipPath id="clip830">
    <rect x="0" y="0" width="2400" height="1600"/>
  </clipPath>
</defs>
<path clip-path="url(#clip830)" d="
M0 1600 L2400 1600 L2400 0 L0 0  Z
  " fill="#ffffff" fill-rule="evenodd" fill-opacity="1"/>
<defs>
  <clipPath id="clip831">
    <rect x="480" y="0" width="1681" height="1600"/>
  </clipPath>
</defs>
<defs>
  <clipPath id="clip832">
    <rect x="242" y="47" width="1467" height="1397"/>
  </clipPath>
</defs>
<path clip-path="url(#clip830)" d="
M455.082 1349.74 L1586.15 1349.74 L1586.15 47.2441 L455.082 47.2441  Z
  " fill="#ffffff" fill-rule="evenodd" fill-opacity="1"/>
<defs>
  <clipPath id="clip833">
    <rect x="455" y="47" width="1132" height="1303"/>
  </clipPath>
</defs>
<polyline clip-path="url(#clip830)" style="stroke:#000000; stroke-linecap:butt; stroke-linejoin:round; stroke-width:4; stroke-opacity:1; fill:none" points="
  455.082,1349.74 1586.15,1349.74 
  "/>
<polyline clip-path="url(#clip830)" style="stroke:#000000; stroke-linecap:butt; stroke-linejoin:round; stroke-width:4; stroke-opacity:1; fill:none" points="
  487.093,1349.74 487.093,1330.84 
  "/>
<polyline clip-path="url(#clip830)" style="stroke:#000000; stroke-linecap:butt; stroke-linejoin:round; stroke-width:4; stroke-opacity:1; fill:none" points="
  753.048,1349.74 753.048,1330.84 
  "/>
<polyline clip-path="url(#clip830)" style="stroke:#000000; stroke-linecap:butt; stroke-linejoin:round; stroke-width:4; stroke-opacity:1; fill:none" points="
  1019,1349.74 1019,1330.84 
  "/>
<polyline clip-path="url(#clip830)" style="stroke:#000000; stroke-linecap:butt; stroke-linejoin:round; stroke-width:4; stroke-opacity:1; fill:none" points="
  1284.96,1349.74 1284.96,1330.84 
  "/>
<polyline clip-path="url(#clip830)" style="stroke:#000000; stroke-linecap:butt; stroke-linejoin:round; stroke-width:4; stroke-opacity:1; fill:none" points="
  1550.91,1349.74 1550.91,1330.84 
  "/>
<path clip-path="url(#clip830)" d="M436.208 1395.31 Q428.083 1395.31 423.969 1403.33 Q419.906 1411.3 419.906 1427.34 Q419.906 1443.33 423.969 1451.35 Q428.083 1459.32 436.208 1459.32 Q444.385 1459.32 448.448 1451.35 Q452.562 1443.33 452.562 1427.34 Q452.562 1411.3 448.448 1403.33 Q444.385 1395.31 436.208 1395.31 M436.208 1386.97 Q449.281 1386.97 456.156 1397.34 Q463.083 1407.65 463.083 1427.34 Q463.083 1446.97 456.156 1457.34 Q449.281 1467.65 436.208 1467.65 Q423.135 1467.65 416.208 1457.34 Q409.333 1446.97 409.333 1427.34 Q409.333 1407.65 416.208 1397.34 Q423.135 1386.97 436.208 1386.97 Z" fill="#000000" fill-rule="evenodd" fill-opacity="1" /><path clip-path="url(#clip830)" d="M481.573 1452.91 L492.562 1452.91 L492.562 1466.14 L481.573 1466.14 L481.573 1452.91 Z" fill="#000000" fill-rule="evenodd" fill-opacity="1" /><path clip-path="url(#clip830)" d="M537.979 1395.31 Q529.854 1395.31 525.739 1403.33 Q521.677 1411.3 521.677 1427.34 Q521.677 1443.33 525.739 1451.35 Q529.854 1459.32 537.979 1459.32 Q546.156 1459.32 550.218 1451.35 Q554.333 1443.33 554.333 1427.34 Q554.333 1411.3 550.218 1403.33 Q546.156 1395.31 537.979 1395.31 M537.979 1386.97 Q551.051 1386.97 557.926 1397.34 Q564.853 1407.65 564.853 1427.34 Q564.853 1446.97 557.926 1457.34 Q551.051 1467.65 537.979 1467.65 Q524.906 1467.65 517.979 1457.34 Q511.104 1446.97 511.104 1427.34 Q511.104 1407.65 517.979 1397.34 Q524.906 1386.97 537.979 1386.97 Z" fill="#000000" fill-rule="evenodd" fill-opacity="1" /><path clip-path="url(#clip830)" d="M703.283 1395.31 Q695.158 1395.31 691.043 1403.33 Q686.981 1411.3 686.981 1427.34 Q686.981 1443.33 691.043 1451.35 Q695.158 1459.32 703.283 1459.32 Q711.46 1459.32 715.522 1451.35 Q719.637 1443.33 719.637 1427.34 Q719.637 1411.3 715.522 1403.33 Q711.46 1395.31 703.283 1395.31 M703.283 1386.97 Q716.355 1386.97 723.23 1397.34 Q730.157 1407.65 730.157 1427.34 Q730.157 1446.97 723.23 1457.34 Q716.355 1467.65 703.283 1467.65 Q690.21 1467.65 683.283 1457.34 Q676.408 1446.97 676.408 1427.34 Q676.408 1407.65 683.283 1397.34 Q690.21 1386.97 703.283 1386.97 Z" fill="#000000" fill-rule="evenodd" fill-opacity="1" /><path clip-path="url(#clip830)" d="M748.647 1452.91 L759.636 1452.91 L759.636 1466.14 L748.647 1466.14 L748.647 1452.91 Z" fill="#000000" fill-rule="evenodd" fill-opacity="1" /><path clip-path="url(#clip830)" d="M782.657 1388.38 L823.959 1388.38 L823.959 1397.23 L792.293 1397.23 L792.293 1416.3 Q794.584 1415.52 796.876 1415.15 Q799.168 1414.73 801.459 1414.73 Q814.48 1414.73 822.084 1421.87 Q829.688 1429 829.688 1441.19 Q829.688 1453.74 821.876 1460.72 Q814.063 1467.65 799.845 1467.65 Q794.949 1467.65 789.845 1466.82 Q784.793 1465.98 779.376 1464.32 L779.376 1453.74 Q784.063 1456.3 789.063 1457.55 Q794.063 1458.8 799.636 1458.8 Q808.647 1458.8 813.907 1454.06 Q819.167 1449.32 819.167 1441.19 Q819.167 1433.07 813.907 1428.33 Q808.647 1423.59 799.636 1423.59 Q795.418 1423.59 791.199 1424.53 Q787.032 1425.46 782.657 1427.44 L782.657 1388.38 Z" fill="#000000" fill-rule="evenodd" fill-opacity="1" /><path clip-path="url(#clip830)" d="M945.097 1457.29 L962.284 1457.29 L962.284 1397.96 L943.586 1401.71 L943.586 1392.13 L962.18 1388.38 L972.701 1388.38 L972.701 1457.29 L989.888 1457.29 L989.888 1466.14 L945.097 1466.14 L945.097 1457.29 Z" fill="#000000" fill-rule="evenodd" fill-opacity="1" /><path clip-path="url(#clip830)" d="M1011.14 1452.91 L1022.13 1452.91 L1022.13 1466.14 L1011.14 1466.14 L1011.14 1452.91 Z" fill="#000000" fill-rule="evenodd" fill-opacity="1" /><path clip-path="url(#clip830)" d="M1067.54 1395.31 Q1059.42 1395.31 1055.3 1403.33 Q1051.24 1411.3 1051.24 1427.34 Q1051.24 1443.33 1055.3 1451.35 Q1059.42 1459.32 1067.54 1459.32 Q1075.72 1459.32 1079.78 1451.35 Q1083.9 1443.33 1083.9 1427.34 Q1083.9 1411.3 1079.78 1403.33 Q1075.72 1395.31 1067.54 1395.31 M1067.54 1386.97 Q1080.62 1386.97 1087.49 1397.34 Q1094.42 1407.65 1094.42 1427.34 Q1094.42 1446.97 1087.49 1457.34 Q1080.62 1467.65 1067.54 1467.65 Q1054.47 1467.65 1047.54 1457.34 Q1040.67 1446.97 1040.67 1427.34 Q1040.67 1407.65 1047.54 1397.34 Q1054.47 1386.97 1067.54 1386.97 Z" fill="#000000" fill-rule="evenodd" fill-opacity="1" /><path clip-path="url(#clip830)" d="M1212.17 1457.29 L1229.36 1457.29 L1229.36 1397.96 L1210.66 1401.71 L1210.66 1392.13 L1229.25 1388.38 L1239.78 1388.38 L1239.78 1457.29 L1256.96 1457.29 L1256.96 1466.14 L1212.17 1466.14 L1212.17 1457.29 Z" fill="#000000" fill-rule="evenodd" fill-opacity="1" /><path clip-path="url(#clip830)" d="M1278.21 1452.91 L1289.2 1452.91 L1289.2 1466.14 L1278.21 1466.14 L1278.21 1452.91 Z" fill="#000000" fill-rule="evenodd" fill-opacity="1" /><path clip-path="url(#clip830)" d="M1312.22 1388.38 L1353.52 1388.38 L1353.52 1397.23 L1321.86 1397.23 L1321.86 1416.3 Q1324.15 1415.52 1326.44 1415.15 Q1328.73 1414.73 1331.02 1414.73 Q1344.05 1414.73 1351.65 1421.87 Q1359.25 1429 1359.25 1441.19 Q1359.25 1453.74 1351.44 1460.72 Q1343.63 1467.65 1329.41 1467.65 Q1324.51 1467.65 1319.41 1466.82 Q1314.36 1465.98 1308.94 1464.32 L1308.94 1453.74 Q1313.63 1456.3 1318.63 1457.55 Q1323.63 1458.8 1329.2 1458.8 Q1338.21 1458.8 1343.47 1454.06 Q1348.73 1449.32 1348.73 1441.19 Q1348.73 1433.07 1343.47 1428.33 Q1338.21 1423.59 1329.2 1423.59 Q1324.98 1423.59 1320.76 1424.53 Q1316.6 1425.46 1312.22 1427.44 L1312.22 1388.38 Z" fill="#000000" fill-rule="evenodd" fill-opacity="1" /><path clip-path="url(#clip830)" d="M1486.2 1457.29 L1522.92 1457.29 L1522.92 1466.14 L1473.54 1466.14 L1473.54 1457.29 Q1479.53 1451.09 1489.84 1440.67 Q1500.21 1430.2 1502.87 1427.18 Q1507.92 1421.5 1509.9 1417.6 Q1511.93 1413.64 1511.93 1409.84 Q1511.93 1403.64 1507.55 1399.73 Q1503.23 1395.83 1496.25 1395.83 Q1491.3 1395.83 1485.78 1397.55 Q1480.31 1399.27 1474.06 1402.75 L1474.06 1392.13 Q1480.42 1389.58 1485.94 1388.28 Q1491.46 1386.97 1496.04 1386.97 Q1508.13 1386.97 1515.31 1393.02 Q1522.5 1399.06 1522.5 1409.16 Q1522.5 1413.95 1520.68 1418.28 Q1518.91 1422.55 1514.17 1428.38 Q1512.87 1429.89 1505.89 1437.13 Q1498.91 1444.32 1486.2 1457.29 Z" fill="#000000" fill-rule="evenodd" fill-opacity="1" /><path clip-path="url(#clip830)" d="M1545 1452.91 L1555.99 1452.91 L1555.99 1466.14 L1545 1466.14 L1545 1452.91 Z" fill="#000000" fill-rule="evenodd" fill-opacity="1" /><path clip-path="url(#clip830)" d="M1601.41 1395.31 Q1593.28 1395.31 1589.17 1403.33 Q1585.1 1411.3 1585.1 1427.34 Q1585.1 1443.33 1589.17 1451.35 Q1593.28 1459.32 1601.41 1459.32 Q1609.58 1459.32 1613.65 1451.35 Q1617.76 1443.33 1617.76 1427.34 Q1617.76 1411.3 1613.65 1403.33 Q1609.58 1395.31 1601.41 1395.31 M1601.41 1386.97 Q1614.48 1386.97 1621.35 1397.34 Q1628.28 1407.65 1628.28 1427.34 Q1628.28 1446.97 1621.35 1457.34 Q1614.48 1467.65 1601.41 1467.65 Q1588.33 1467.65 1581.41 1457.34 Q1574.53 1446.97 1574.53 1427.34 Q1574.53 1407.65 1581.41 1397.34 Q1588.33 1386.97 1601.41 1386.97 Z" fill="#000000" fill-rule="evenodd" fill-opacity="1" /><path clip-path="url(#clip830)" d="M836.45 1520.8 L836.45 1537.36 L856.19 1537.36 L856.19 1544.81 L836.45 1544.81 L836.45 1576.47 Q836.45 1583.61 838.377 1585.64 Q840.357 1587.67 846.346 1587.67 L856.19 1587.67 L856.19 1595.69 L846.346 1595.69 Q835.252 1595.69 831.034 1591.58 Q826.815 1587.41 826.815 1576.47 L826.815 1544.81 L819.784 1544.81 L819.784 1537.36 L826.815 1537.36 L826.815 1520.8 L836.45 1520.8 Z" fill="#000000" fill-rule="evenodd" fill-opacity="1" /><path clip-path="url(#clip830)" d="M868.794 1537.36 L878.377 1537.36 L878.377 1595.69 L868.794 1595.69 L868.794 1537.36 M868.794 1514.65 L878.377 1514.65 L878.377 1526.79 L868.794 1526.79 L868.794 1514.65 Z" fill="#000000" fill-rule="evenodd" fill-opacity="1" /><path clip-path="url(#clip830)" d="M943.846 1548.56 Q947.439 1542.1 952.439 1539.03 Q957.439 1535.95 964.21 1535.95 Q973.325 1535.95 978.273 1542.36 Q983.22 1548.71 983.22 1560.48 L983.22 1595.69 L973.585 1595.69 L973.585 1560.8 Q973.585 1552.41 970.616 1548.35 Q967.648 1544.29 961.554 1544.29 Q954.106 1544.29 949.783 1549.23 Q945.46 1554.18 945.46 1562.72 L945.46 1595.69 L935.825 1595.69 L935.825 1560.8 Q935.825 1552.36 932.856 1548.35 Q929.887 1544.29 923.689 1544.29 Q916.346 1544.29 912.023 1549.29 Q907.7 1554.23 907.7 1562.72 L907.7 1595.69 L898.065 1595.69 L898.065 1537.36 L907.7 1537.36 L907.7 1546.42 Q910.981 1541.06 915.565 1538.5 Q920.148 1535.95 926.45 1535.95 Q932.804 1535.95 937.231 1539.18 Q941.71 1542.41 943.846 1548.56 Z" fill="#000000" fill-rule="evenodd" fill-opacity="1" /><path clip-path="url(#clip830)" d="M1052.23 1564.13 L1052.23 1568.82 L1008.17 1568.82 Q1008.79 1578.71 1014.11 1583.92 Q1019.47 1589.08 1029 1589.08 Q1034.52 1589.08 1039.68 1587.72 Q1044.89 1586.37 1049.99 1583.66 L1049.99 1592.72 Q1044.83 1594.91 1039.42 1596.06 Q1034 1597.2 1028.43 1597.2 Q1014.47 1597.2 1006.29 1589.08 Q998.168 1580.95 998.168 1567.1 Q998.168 1552.78 1005.88 1544.39 Q1013.64 1535.95 1026.76 1535.95 Q1038.53 1535.95 1045.36 1543.56 Q1052.23 1551.11 1052.23 1564.13 M1042.65 1561.32 Q1042.54 1553.45 1038.22 1548.77 Q1033.95 1544.08 1026.87 1544.08 Q1018.85 1544.08 1014 1548.61 Q1009.21 1553.14 1008.48 1561.37 L1042.65 1561.32 Z" fill="#000000" fill-rule="evenodd" fill-opacity="1" /><path clip-path="url(#clip830)" d="M1124.89 1514.75 Q1117.91 1526.73 1114.52 1538.45 Q1111.14 1550.17 1111.14 1562.2 Q1111.14 1574.23 1114.52 1586.06 Q1117.96 1597.83 1124.89 1609.75 L1116.55 1609.75 Q1108.74 1597.51 1104.83 1585.69 Q1100.98 1573.87 1100.98 1562.2 Q1100.98 1550.59 1104.83 1538.82 Q1108.69 1527.05 1116.55 1514.75 L1124.89 1514.75 Z" fill="#000000" fill-rule="evenodd" fill-opacity="1" /><path clip-path="url(#clip830)" d="M1180.67 1539.08 L1180.67 1548.14 Q1176.6 1546.06 1172.23 1545.02 Q1167.85 1543.97 1163.17 1543.97 Q1156.03 1543.97 1152.44 1546.16 Q1148.9 1548.35 1148.9 1552.72 Q1148.9 1556.06 1151.45 1557.98 Q1154 1559.86 1161.71 1561.58 L1164.99 1562.31 Q1175.2 1564.49 1179.47 1568.5 Q1183.79 1572.46 1183.79 1579.6 Q1183.79 1587.72 1177.33 1592.46 Q1170.93 1597.2 1159.68 1597.2 Q1154.99 1597.2 1149.89 1596.26 Q1144.83 1595.38 1139.21 1593.56 L1139.21 1583.66 Q1144.52 1586.42 1149.68 1587.83 Q1154.83 1589.18 1159.89 1589.18 Q1166.66 1589.18 1170.3 1586.89 Q1173.95 1584.55 1173.95 1580.33 Q1173.95 1576.42 1171.29 1574.34 Q1168.69 1572.25 1159.78 1570.33 L1156.45 1569.55 Q1147.54 1567.67 1143.58 1563.82 Q1139.63 1559.91 1139.63 1553.14 Q1139.63 1544.91 1145.46 1540.43 Q1151.29 1535.95 1162.02 1535.95 Q1167.33 1535.95 1172.02 1536.73 Q1176.71 1537.52 1180.67 1539.08 Z" fill="#000000" fill-rule="evenodd" fill-opacity="1" /><path clip-path="url(#clip830)" d="M1197.54 1514.75 L1205.88 1514.75 Q1213.69 1527.05 1217.54 1538.82 Q1221.45 1550.59 1221.45 1562.2 Q1221.45 1573.87 1217.54 1585.69 Q1213.69 1597.51 1205.88 1609.75 L1197.54 1609.75 Q1204.47 1597.83 1207.85 1586.06 Q1211.29 1574.23 1211.29 1562.2 Q1211.29 1550.17 1207.85 1538.45 Q1204.47 1526.73 1197.54 1514.75 Z" fill="#000000" fill-rule="evenodd" fill-opacity="1" /><polyline clip-path="url(#clip830)" style="stroke:#000000; stroke-linecap:butt; stroke-linejoin:round; stroke-width:4; stroke-opacity:1; fill:none" points="
  455.082,1349.74 455.082,47.2441 
  "/>
<polyline clip-path="url(#clip830)" style="stroke:#000000; stroke-linecap:butt; stroke-linejoin:round; stroke-width:4; stroke-opacity:1; fill:none" points="
  455.082,1267.44 466.346,1267.44 
  "/>
<polyline clip-path="url(#clip830)" style="stroke:#000000; stroke-linecap:butt; stroke-linejoin:round; stroke-width:4; stroke-opacity:1; fill:none" points="
  455.082,1077.8 466.346,1077.8 
  "/>
<polyline clip-path="url(#clip830)" style="stroke:#000000; stroke-linecap:butt; stroke-linejoin:round; stroke-width:4; stroke-opacity:1; fill:none" points="
  455.082,888.167 466.346,888.167 
  "/>
<polyline clip-path="url(#clip830)" style="stroke:#000000; stroke-linecap:butt; stroke-linejoin:round; stroke-width:4; stroke-opacity:1; fill:none" points="
  455.082,698.53 466.346,698.53 
  "/>
<polyline clip-path="url(#clip830)" style="stroke:#000000; stroke-linecap:butt; stroke-linejoin:round; stroke-width:4; stroke-opacity:1; fill:none" points="
  455.082,508.894 466.346,508.894 
  "/>
<polyline clip-path="url(#clip830)" style="stroke:#000000; stroke-linecap:butt; stroke-linejoin:round; stroke-width:4; stroke-opacity:1; fill:none" points="
  455.082,319.257 466.346,319.257 
  "/>
<polyline clip-path="url(#clip830)" style="stroke:#000000; stroke-linecap:butt; stroke-linejoin:round; stroke-width:4; stroke-opacity:1; fill:none" points="
  455.082,129.62 466.346,129.62 
  "/>
<path clip-path="url(#clip830)" d="M144.5 1268.46 L211.271 1268.46 L211.271 1277.31 L144.5 1277.31 L144.5 1268.46 Z" fill="#000000" fill-rule="evenodd" fill-opacity="1" /><path clip-path="url(#clip830)" d="M235.802 1297.47 L252.989 1297.47 L252.989 1238.14 L234.291 1241.89 L234.291 1232.31 L252.885 1228.56 L263.406 1228.56 L263.406 1297.47 L280.593 1297.47 L280.593 1306.32 L235.802 1306.32 L235.802 1297.47 Z" fill="#000000" fill-rule="evenodd" fill-opacity="1" /><path clip-path="url(#clip830)" d="M301.947 1228.56 L343.249 1228.56 L343.249 1237.41 L311.583 1237.41 L311.583 1256.48 Q313.874 1255.7 316.166 1255.33 Q318.458 1254.91 320.749 1254.91 Q333.77 1254.91 341.374 1262.05 Q348.978 1269.19 348.978 1281.37 Q348.978 1293.92 341.166 1300.9 Q333.353 1307.83 319.135 1307.83 Q314.239 1307.83 309.135 1307 Q304.083 1306.16 298.666 1304.5 L298.666 1293.92 Q303.353 1296.48 308.353 1297.73 Q313.353 1298.98 318.926 1298.98 Q327.937 1298.98 333.197 1294.24 Q338.457 1289.5 338.457 1281.37 Q338.457 1273.25 333.197 1268.51 Q327.937 1263.77 318.926 1263.77 Q314.708 1263.77 310.489 1264.71 Q306.322 1265.64 301.947 1267.62 L301.947 1228.56 Z" fill="#000000" fill-rule="evenodd" fill-opacity="1" /><path clip-path="url(#clip830)" d="M392.207 1235.49 Q384.082 1235.49 379.968 1243.51 Q375.905 1251.48 375.905 1267.52 Q375.905 1283.51 379.968 1291.53 Q384.082 1299.5 392.207 1299.5 Q400.384 1299.5 404.447 1291.53 Q408.561 1283.51 408.561 1267.52 Q408.561 1251.48 404.447 1243.51 Q400.384 1235.49 392.207 1235.49 M392.207 1227.15 Q405.28 1227.15 412.155 1237.52 Q419.082 1247.83 419.082 1267.52 Q419.082 1287.15 412.155 1297.52 Q405.28 1307.83 392.207 1307.83 Q379.134 1307.83 372.207 1297.52 Q365.332 1287.15 365.332 1267.52 Q365.332 1247.83 372.207 1237.52 Q379.134 1227.15 392.207 1227.15 Z" fill="#000000" fill-rule="evenodd" fill-opacity="1" /><path clip-path="url(#clip830)" d="M144.5 1078.82 L211.271 1078.82 L211.271 1087.67 L144.5 1087.67 L144.5 1078.82 Z" fill="#000000" fill-rule="evenodd" fill-opacity="1" /><path clip-path="url(#clip830)" d="M235.802 1107.83 L252.989 1107.83 L252.989 1048.51 L234.291 1052.26 L234.291 1042.67 L252.885 1038.92 L263.406 1038.92 L263.406 1107.83 L280.593 1107.83 L280.593 1116.68 L235.802 1116.68 L235.802 1107.83 Z" fill="#000000" fill-rule="evenodd" fill-opacity="1" /><path clip-path="url(#clip830)" d="M324.343 1045.85 Q316.218 1045.85 312.103 1053.87 Q308.041 1061.84 308.041 1077.88 Q308.041 1093.87 312.103 1101.89 Q316.218 1109.86 324.343 1109.86 Q332.52 1109.86 336.582 1101.89 Q340.697 1093.87 340.697 1077.88 Q340.697 1061.84 336.582 1053.87 Q332.52 1045.85 324.343 1045.85 M324.343 1037.52 Q337.416 1037.52 344.291 1047.88 Q351.218 1058.19 351.218 1077.88 Q351.218 1097.52 344.291 1107.88 Q337.416 1118.19 324.343 1118.19 Q311.27 1118.19 304.343 1107.88 Q297.468 1097.52 297.468 1077.88 Q297.468 1058.19 304.343 1047.88 Q311.27 1037.52 324.343 1037.52 Z" fill="#000000" fill-rule="evenodd" fill-opacity="1" /><path clip-path="url(#clip830)" d="M392.207 1045.85 Q384.082 1045.85 379.968 1053.87 Q375.905 1061.84 375.905 1077.88 Q375.905 1093.87 379.968 1101.89 Q384.082 1109.86 392.207 1109.86 Q400.384 1109.86 404.447 1101.89 Q408.561 1093.87 408.561 1077.88 Q408.561 1061.84 404.447 1053.87 Q400.384 1045.85 392.207 1045.85 M392.207 1037.52 Q405.28 1037.52 412.155 1047.88 Q419.082 1058.19 419.082 1077.88 Q419.082 1097.52 412.155 1107.88 Q405.28 1118.19 392.207 1118.19 Q379.134 1118.19 372.207 1107.88 Q365.332 1097.52 365.332 1077.88 Q365.332 1058.19 372.207 1047.88 Q379.134 1037.52 392.207 1037.52 Z" fill="#000000" fill-rule="evenodd" fill-opacity="1" /><path clip-path="url(#clip830)" d="M212.364 889.183 L279.135 889.183 L279.135 898.037 L212.364 898.037 L212.364 889.183 Z" fill="#000000" fill-rule="evenodd" fill-opacity="1" /><path clip-path="url(#clip830)" d="M301.947 849.287 L343.249 849.287 L343.249 858.141 L311.583 858.141 L311.583 877.204 Q313.874 876.422 316.166 876.058 Q318.458 875.641 320.749 875.641 Q333.77 875.641 341.374 882.776 Q348.978 889.912 348.978 902.099 Q348.978 914.651 341.166 921.63 Q333.353 928.557 319.135 928.557 Q314.239 928.557 309.135 927.724 Q304.083 926.891 298.666 925.224 L298.666 914.651 Q303.353 917.203 308.353 918.453 Q313.353 919.703 318.926 919.703 Q327.937 919.703 333.197 914.964 Q338.457 910.224 338.457 902.099 Q338.457 893.974 333.197 889.235 Q327.937 884.495 318.926 884.495 Q314.708 884.495 310.489 885.433 Q306.322 886.37 301.947 888.349 L301.947 849.287 Z" fill="#000000" fill-rule="evenodd" fill-opacity="1" /><path clip-path="url(#clip830)" d="M392.207 856.214 Q384.082 856.214 379.968 864.235 Q375.905 872.204 375.905 888.245 Q375.905 904.235 379.968 912.255 Q384.082 920.224 392.207 920.224 Q400.384 920.224 404.447 912.255 Q408.561 904.235 408.561 888.245 Q408.561 872.204 404.447 864.235 Q400.384 856.214 392.207 856.214 M392.207 847.881 Q405.28 847.881 412.155 858.245 Q419.082 868.558 419.082 888.245 Q419.082 907.88 412.155 918.245 Q405.28 928.557 392.207 928.557 Q379.134 928.557 372.207 918.245 Q365.332 907.88 365.332 888.245 Q365.332 868.558 372.207 858.245 Q379.134 847.881 392.207 847.881 Z" fill="#000000" fill-rule="evenodd" fill-opacity="1" /><path clip-path="url(#clip830)" d="M392.207 666.577 Q384.082 666.577 379.968 674.598 Q375.905 682.567 375.905 698.608 Q375.905 714.598 379.968 722.619 Q384.082 730.587 392.207 730.587 Q400.384 730.587 404.447 722.619 Q408.561 714.598 408.561 698.608 Q408.561 682.567 404.447 674.598 Q400.384 666.577 392.207 666.577 M392.207 658.244 Q405.28 658.244 412.155 668.609 Q419.082 678.921 419.082 698.608 Q419.082 718.244 412.155 728.608 Q405.28 738.921 392.207 738.921 Q379.134 738.921 372.207 728.608 Q365.332 718.244 365.332 698.608 Q365.332 678.921 372.207 668.609 Q379.134 658.244 392.207 658.244 Z" fill="#000000" fill-rule="evenodd" fill-opacity="1" /><path clip-path="url(#clip830)" d="M301.947 470.014 L343.249 470.014 L343.249 478.868 L311.583 478.868 L311.583 497.93 Q313.874 497.149 316.166 496.784 Q318.458 496.368 320.749 496.368 Q333.77 496.368 341.374 503.503 Q348.978 510.638 348.978 522.826 Q348.978 535.378 341.166 542.357 Q333.353 549.284 319.135 549.284 Q314.239 549.284 309.135 548.451 Q304.083 547.617 298.666 545.951 L298.666 535.378 Q303.353 537.93 308.353 539.18 Q313.353 540.43 318.926 540.43 Q327.937 540.43 333.197 535.69 Q338.457 530.951 338.457 522.826 Q338.457 514.701 333.197 509.961 Q327.937 505.222 318.926 505.222 Q314.708 505.222 310.489 506.159 Q306.322 507.097 301.947 509.076 L301.947 470.014 Z" fill="#000000" fill-rule="evenodd" fill-opacity="1" /><path clip-path="url(#clip830)" d="M392.207 476.941 Q384.082 476.941 379.968 484.961 Q375.905 492.93 375.905 508.972 Q375.905 524.961 379.968 532.982 Q384.082 540.951 392.207 540.951 Q400.384 540.951 404.447 532.982 Q408.561 524.961 408.561 508.972 Q408.561 492.93 404.447 484.961 Q400.384 476.941 392.207 476.941 M392.207 468.607 Q405.28 468.607 412.155 478.972 Q419.082 489.284 419.082 508.972 Q419.082 528.607 412.155 538.971 Q405.28 549.284 392.207 549.284 Q379.134 549.284 372.207 538.971 Q365.332 528.607 365.332 508.972 Q365.332 489.284 372.207 478.972 Q379.134 468.607 392.207 468.607 Z" fill="#000000" fill-rule="evenodd" fill-opacity="1" /><path clip-path="url(#clip830)" d="M235.802 349.283 L252.989 349.283 L252.989 289.96 L234.291 293.71 L234.291 284.127 L252.885 280.377 L263.406 280.377 L263.406 349.283 L280.593 349.283 L280.593 358.137 L235.802 358.137 L235.802 349.283 Z" fill="#000000" fill-rule="evenodd" fill-opacity="1" /><path clip-path="url(#clip830)" d="M324.343 287.304 Q316.218 287.304 312.103 295.325 Q308.041 303.293 308.041 319.335 Q308.041 335.324 312.103 343.345 Q316.218 351.314 324.343 351.314 Q332.52 351.314 336.582 343.345 Q340.697 335.324 340.697 319.335 Q340.697 303.293 336.582 295.325 Q332.52 287.304 324.343 287.304 M324.343 278.971 Q337.416 278.971 344.291 289.335 Q351.218 299.647 351.218 319.335 Q351.218 338.97 344.291 349.335 Q337.416 359.647 324.343 359.647 Q311.27 359.647 304.343 349.335 Q297.468 338.97 297.468 319.335 Q297.468 299.647 304.343 289.335 Q311.27 278.971 324.343 278.971 Z" fill="#000000" fill-rule="evenodd" fill-opacity="1" /><path clip-path="url(#clip830)" d="M392.207 287.304 Q384.082 287.304 379.968 295.325 Q375.905 303.293 375.905 319.335 Q375.905 335.324 379.968 343.345 Q384.082 351.314 392.207 351.314 Q400.384 351.314 404.447 343.345 Q408.561 335.324 408.561 319.335 Q408.561 303.293 404.447 295.325 Q400.384 287.304 392.207 287.304 M392.207 278.971 Q405.28 278.971 412.155 289.335 Q419.082 299.647 419.082 319.335 Q419.082 338.97 412.155 349.335 Q405.28 359.647 392.207 359.647 Q379.134 359.647 372.207 349.335 Q365.332 338.97 365.332 319.335 Q365.332 299.647 372.207 289.335 Q379.134 278.971 392.207 278.971 Z" fill="#000000" fill-rule="evenodd" fill-opacity="1" /><path clip-path="url(#clip830)" d="M235.802 159.646 L252.989 159.646 L252.989 100.323 L234.291 104.073 L234.291 94.49 L252.885 90.74 L263.406 90.74 L263.406 159.646 L280.593 159.646 L280.593 168.5 L235.802 168.5 L235.802 159.646 Z" fill="#000000" fill-rule="evenodd" fill-opacity="1" /><path clip-path="url(#clip830)" d="M301.947 90.74 L343.249 90.74 L343.249 99.5941 L311.583 99.5941 L311.583 118.657 Q313.874 117.875 316.166 117.511 Q318.458 117.094 320.749 117.094 Q333.77 117.094 341.374 124.229 Q348.978 131.365 348.978 143.552 Q348.978 156.104 341.166 163.083 Q333.353 170.01 319.135 170.01 Q314.239 170.01 309.135 169.177 Q304.083 168.344 298.666 166.677 L298.666 156.104 Q303.353 158.656 308.353 159.906 Q313.353 161.156 318.926 161.156 Q327.937 161.156 333.197 156.417 Q338.457 151.677 338.457 143.552 Q338.457 135.427 333.197 130.688 Q327.937 125.948 318.926 125.948 Q314.708 125.948 310.489 126.886 Q306.322 127.823 301.947 129.802 L301.947 90.74 Z" fill="#000000" fill-rule="evenodd" fill-opacity="1" /><path clip-path="url(#clip830)" d="M392.207 97.667 Q384.082 97.667 379.968 105.688 Q375.905 113.657 375.905 129.698 Q375.905 145.688 379.968 153.708 Q384.082 161.677 392.207 161.677 Q400.384 161.677 404.447 153.708 Q408.561 145.688 408.561 129.698 Q408.561 113.657 404.447 105.688 Q400.384 97.667 392.207 97.667 M392.207 89.3338 Q405.28 89.3338 412.155 99.6983 Q419.082 110.011 419.082 129.698 Q419.082 149.333 412.155 159.698 Q405.28 170.01 392.207 170.01 Q379.134 170.01 372.207 159.698 Q365.332 149.333 365.332 129.698 Q365.332 110.011 372.207 99.6983 Q379.134 89.3338 392.207 89.3338 Z" fill="#000000" fill-rule="evenodd" fill-opacity="1" /><path clip-path="url(#clip830)" d="M48.845 833.464 Q57.6987 833.464 67.659 836.31 Q77.5667 839.103 85.5772 843.53 Q93.535 847.957 98.805 853.754 Q104.022 859.551 104.022 865.085 Q104.022 868.615 102.072 871.25 Q100.07 873.833 96.7497 875.256 Q93.3769 876.679 89.6879 877.364 Q85.9461 878.049 81.8882 878.049 Q75.8276 878.049 69.2401 876.731 Q62.5998 875.414 56.5919 873.2 Q50.5314 870.987 45.0505 867.878 Q39.517 864.768 35.5117 861.343 Q31.4538 857.865 29.0823 853.965 Q26.7108 850.065 26.7108 846.429 Q26.7108 843.794 27.8702 841.685 Q28.9769 839.525 30.9268 838.155 Q32.824 836.784 35.0901 835.836 Q37.3563 834.834 39.9913 834.36 Q42.5736 833.886 44.7343 833.675 Q46.8424 833.464 48.845 833.464 M42.152 840.579 Q39.4643 840.579 37.4617 840.79 Q35.4063 841 33.351 841.58 Q31.2957 842.16 30.189 843.425 Q29.0823 844.637 29.0823 846.534 Q29.0823 852.067 40.4129 858.286 Q43.9438 860.289 48.7396 862.081 Q53.5353 863.872 55.8014 864.505 Q58.0676 865.137 63.6538 866.613 L63.6538 844.057 Q49.2666 840.579 42.152 840.579 M67.0793 845.006 L67.0793 867.456 Q80.2545 870.934 88.4757 870.934 Q95.643 870.934 98.6469 869.459 Q101.598 867.93 101.598 865.085 Q101.598 861.817 98.3307 858.76 Q95.0106 855.704 89.0028 852.594 Q81.2031 848.484 67.0793 845.006 Z" fill="#000000" fill-rule="evenodd" fill-opacity="1" /><path clip-path="url(#clip830)" d="M21.8732 760.965 Q33.8523 767.944 45.571 771.33 Q57.2897 774.715 69.3209 774.715 Q81.3521 774.715 93.1749 771.33 Q104.946 767.892 116.873 760.965 L116.873 769.298 Q104.633 777.111 92.8103 781.017 Q80.9875 784.871 69.3209 784.871 Q57.7064 784.871 45.9356 781.017 Q34.1648 777.163 21.8732 769.298 L21.8732 760.965 Z" fill="#000000" fill-rule="evenodd" fill-opacity="1" /><path clip-path="url(#clip830)" d="M53.3314 703.986 L21.7691 703.986 L21.7691 694.403 L102.81 694.403 L102.81 703.986 L94.0603 703.986 Q99.2686 707.007 101.821 711.642 Q104.321 716.226 104.321 722.684 Q104.321 733.257 95.8832 739.923 Q87.4458 746.538 73.6959 746.538 Q59.9459 746.538 51.5085 739.923 Q43.071 733.257 43.071 722.684 Q43.071 716.226 45.6231 711.642 Q48.1231 707.007 53.3314 703.986 M73.6959 736.642 Q84.2687 736.642 90.3103 732.319 Q96.2999 727.944 96.2999 720.34 Q96.2999 712.736 90.3103 708.361 Q84.2687 703.986 73.6959 703.986 Q63.123 703.986 57.1334 708.361 Q51.0918 712.736 51.0918 720.34 Q51.0918 727.944 57.1334 732.319 Q63.123 736.642 73.6959 736.642 Z" fill="#000000" fill-rule="evenodd" fill-opacity="1" /><path clip-path="url(#clip830)" d="M71.248 624.768 L75.9354 624.768 L75.9354 668.83 Q85.8312 668.205 91.0395 662.893 Q96.1957 657.528 96.1957 647.997 Q96.1957 642.476 94.8416 637.32 Q93.4874 632.112 90.7791 627.007 L99.8415 627.007 Q102.029 632.164 103.175 637.58 Q104.321 642.997 104.321 648.57 Q104.321 662.528 96.1957 670.705 Q88.0708 678.83 74.2167 678.83 Q59.8938 678.83 51.5085 671.122 Q43.071 663.361 43.071 650.236 Q43.071 638.466 50.6751 631.643 Q58.2272 624.768 71.248 624.768 M68.4355 634.351 Q60.5709 634.455 55.8835 638.778 Q51.196 643.049 51.196 650.132 Q51.196 658.153 55.7272 662.997 Q60.2584 667.788 68.4875 668.518 L68.4355 634.351 Z" fill="#000000" fill-rule="evenodd" fill-opacity="1" /><path clip-path="url(#clip830)" d="M72.9667 570.654 Q62.5501 570.654 56.8209 574.976 Q51.0918 579.247 51.0918 587.008 Q51.0918 594.716 56.8209 599.039 Q62.5501 603.31 72.9667 603.31 Q83.3312 603.31 89.0604 599.039 Q94.7895 594.716 94.7895 587.008 Q94.7895 579.247 89.0604 574.976 Q83.3312 570.654 72.9667 570.654 M95.5707 561.07 Q110.466 561.07 117.706 567.685 Q124.998 574.299 124.998 587.945 Q124.998 592.997 124.216 597.476 Q123.487 601.955 121.925 606.174 L112.602 606.174 Q114.894 601.955 115.987 597.841 Q117.081 593.726 117.081 589.456 Q117.081 580.029 112.133 575.341 Q107.237 570.654 97.2895 570.654 L92.5499 570.654 Q97.7061 573.622 100.258 578.258 Q102.81 582.893 102.81 589.351 Q102.81 600.08 94.6332 606.643 Q86.4562 613.205 72.9667 613.205 Q59.4251 613.205 51.2481 606.643 Q43.071 600.08 43.071 589.351 Q43.071 582.893 45.6231 578.258 Q48.1752 573.622 53.3314 570.654 L44.4773 570.654 L44.4773 561.07 L95.5707 561.07 Z" fill="#000000" fill-rule="evenodd" fill-opacity="1" /><path clip-path="url(#clip830)" d="M21.8732 542.841 L21.8732 534.508 Q34.1648 526.695 45.9356 522.841 Q57.7064 518.935 69.3209 518.935 Q80.9875 518.935 92.8103 522.841 Q104.633 526.695 116.873 534.508 L116.873 542.841 Q104.946 535.914 93.1749 532.529 Q81.3521 529.091 69.3209 529.091 Q57.2897 529.091 45.571 532.529 Q33.8523 535.914 21.8732 542.841 Z" fill="#000000" fill-rule="evenodd" fill-opacity="1" /><polyline clip-path="url(#clip833)" style="stroke:#009af9; stroke-linecap:butt; stroke-linejoin:round; stroke-width:16; stroke-opacity:1; fill:none" points="
  487.093,84.1072 492.455,84.2411 497.817,84.6434 503.179,85.3156 508.542,86.2602 513.904,87.4809 519.266,88.9821 524.628,90.7697 529.99,92.8503 535.352,95.2316 
  540.714,97.9226 546.076,100.933 551.438,104.275 556.8,107.96 562.162,112.001 567.524,116.413 572.886,121.212 578.248,126.416 583.61,132.041 588.972,138.109 
  594.334,144.638 599.696,151.652 605.058,159.173 610.42,167.225 615.782,175.833 621.144,185.023 626.506,194.821 631.868,205.254 637.23,216.351 642.592,228.141 
  647.954,240.649 653.317,253.901 658.679,267.923 664.041,282.739 669.403,298.369 674.765,314.833 680.127,332.149 685.489,350.327 690.851,369.373 696.213,389.282 
  701.575,410.046 706.937,431.649 712.299,454.067 717.661,477.271 723.023,501.213 728.385,525.835 733.747,551.071 739.109,576.848 744.471,603.084 749.833,629.69 
  755.195,656.57 760.557,683.621 765.919,710.73 771.281,737.784 776.643,764.677 782.005,791.306 787.367,817.576 792.729,843.397 798.092,868.689 803.454,893.377 
  808.816,917.396 814.178,940.686 819.54,963.195 824.902,984.881 830.264,1005.72 835.626,1025.71 840.988,1044.84 846.35,1063.11 851.712,1080.51 857.074,1097.07 
  862.436,1112.78 867.798,1127.68 873.16,1141.77 878.522,1155.1 883.884,1167.68 889.246,1179.54 894.608,1190.71 899.97,1201.21 905.332,1211.08 910.694,1220.33 
  916.056,1228.99 921.418,1237.09 926.78,1244.66 932.142,1251.71 937.504,1258.28 942.867,1264.39 948.229,1270.06 953.591,1275.31 958.953,1280.15 964.315,1284.6 
  969.677,1288.67 975.039,1292.39 980.401,1295.76 985.763,1298.8 991.125,1301.51 996.487,1303.92 1001.85,1306.02 1007.21,1307.83 1012.57,1309.35 1017.94,1310.6 
  1023.3,1311.57 1028.66,1312.26 1034.02,1312.68 1039.38,1312.84 1044.75,1312.72 1050.11,1312.34 1055.47,1311.68 1060.83,1310.76 1066.19,1309.55 1071.56,1308.07 
  1076.92,1306.3 1082.28,1304.24 1087.64,1301.88 1093,1299.2 1098.37,1296.21 1103.73,1292.89 1109.09,1289.22 1114.45,1285.2 1119.81,1280.81 1125.18,1276.03 
  1130.54,1270.85 1135.9,1265.25 1141.26,1259.21 1146.62,1252.71 1151.99,1245.73 1157.35,1238.24 1162.71,1230.22 1168.07,1221.64 1173.43,1212.47 1178.8,1202.7 
  1184.16,1192.29 1189.52,1181.21 1194.88,1169.45 1200.24,1156.98 1205.61,1143.76 1210.97,1129.78 1216.33,1115.01 1221.69,1099.43 1227.05,1083.01 1232.42,1065.74 
  1237.78,1047.6 1243.14,1028.59 1248.5,1008.71 1253.86,987.976 1259.23,966.407 1264.59,944.026 1269.95,920.866 1275.31,896.964 1280.67,872.369 1286.04,847.15 
  1291.4,821.391 1296.76,795.181 1302.12,768.61 1307.49,741.772 1312.85,714.76 1318.21,687.673 1323.57,660.609 1328.93,633.67 1334.3,606.96 1339.66,580.586 
  1345.02,554.656 1350.38,529.28 1355.74,504.557 1361.11,480.52 1366.47,457.215 1371.83,434.682 1377.19,412.954 1382.55,392.058 1387.92,372.013 1393.28,352.83 
  1398.64,334.515 1404,317.065 1409.36,300.47 1414.73,284.714 1420.09,269.776 1425.45,255.634 1430.81,242.262 1436.17,229.636 1441.54,217.729 1446.9,206.517 
  1452.26,195.973 1457.62,186.071 1462.98,176.785 1468.35,168.088 1473.71,159.952 1479.07,152.352 1484.43,145.259 1489.79,138.647 1495.16,132.495 1500.52,126.786 
  1505.88,121.5 1511.24,116.619 1516.6,112.128 1521.97,108.01 1527.33,104.251 1532.69,100.836 1538.05,97.7518 1543.41,94.9873 1548.78,92.5307 1554.14,90.3719 
  
  "/>
<polyline clip-path="url(#clip833)" style="stroke:#e26f46; stroke-linecap:butt; stroke-linejoin:round; stroke-width:16; stroke-opacity:1; fill:none" points="
  487.093,84.1072 492.455,85.3318 497.817,89.0008 503.179,95.0996 508.542,103.604 513.904,114.48 519.266,127.684 524.628,143.163 529.99,160.857 535.352,180.693 
  540.714,202.594 546.076,226.472 551.438,252.232 556.8,279.771 562.162,308.979 567.524,339.74 572.886,371.931 578.248,405.424 583.61,440.085 588.972,475.777 
  594.334,512.357 599.696,549.679 605.058,587.594 610.42,625.951 615.782,664.598 621.144,703.38 626.506,742.143 631.868,780.732 637.23,818.993 642.592,856.774 
  647.954,893.924 653.317,930.295 658.679,965.742 664.041,1000.12 669.403,1033.3 674.765,1065.15 680.127,1095.53 685.489,1124.34 690.851,1151.44 696.213,1176.74 
  701.575,1200.13 706.937,1221.52 712.299,1240.83 717.661,1257.98 723.023,1272.89 728.385,1285.52 733.747,1295.81 739.109,1303.71 744.471,1309.21 749.833,1312.26 
  755.195,1312.88 760.557,1311.04 765.919,1306.76 771.281,1300.06 776.643,1290.96 782.005,1279.5 787.367,1265.72 792.729,1249.68 798.092,1231.44 803.454,1211.08 
  808.816,1188.68 814.178,1164.32 819.54,1138.11 824.902,1110.14 830.264,1080.53 835.626,1049.4 840.988,1016.87 846.35,983.075 851.712,948.143 857.074,912.216 
  862.436,875.437 867.798,837.953 873.16,799.913 878.522,761.469 883.884,722.774 889.246,683.982 894.608,645.248 899.97,606.727 905.332,568.572 910.694,530.934 
  916.056,493.965 921.418,457.811 926.78,422.617 932.142,388.523 937.504,355.664 942.867,324.173 948.229,294.173 953.591,265.786 958.953,239.123 964.315,214.292 
  969.677,191.391 975.039,170.512 980.401,151.737 985.763,135.143 991.125,120.794 996.487,108.748 1001.85,99.053 1007.21,91.7478 1012.57,86.8615 1017.94,84.4134 
  1023.3,84.4134 1028.66,86.8615 1034.02,91.7478 1039.38,99.053 1044.75,108.748 1050.11,120.794 1055.47,135.143 1060.83,151.737 1066.19,170.512 1071.56,191.391 
  1076.92,214.292 1082.28,239.123 1087.64,265.786 1093,294.173 1098.37,324.173 1103.73,355.664 1109.09,388.523 1114.45,422.617 1119.81,457.811 1125.18,493.965 
  1130.54,530.934 1135.9,568.572 1141.26,606.727 1146.62,645.248 1151.99,683.982 1157.35,722.774 1162.71,761.469 1168.07,799.913 1173.43,837.953 1178.8,875.437 
  1184.16,912.216 1189.52,948.143 1194.88,983.075 1200.24,1016.87 1205.61,1049.4 1210.97,1080.53 1216.33,1110.14 1221.69,1138.11 1227.05,1164.32 1232.42,1188.68 
  1237.78,1211.08 1243.14,1231.44 1248.5,1249.68 1253.86,1265.72 1259.23,1279.5 1264.59,1290.96 1269.95,1300.06 1275.31,1306.76 1280.67,1311.04 1286.04,1312.88 
  1291.4,1312.26 1296.76,1309.21 1302.12,1303.71 1307.49,1295.81 1312.85,1285.52 1318.21,1272.89 1323.57,1257.98 1328.93,1240.83 1334.3,1221.52 1339.66,1200.13 
  1345.02,1176.74 1350.38,1151.44 1355.74,1124.34 1361.11,1095.53 1366.47,1065.15 1371.83,1033.3 1377.19,1000.12 1382.55,965.742 1387.92,930.295 1393.28,893.924 
  1398.64,856.774 1404,818.993 1409.36,780.732 1414.73,742.143 1420.09,703.38 1425.45,664.598 1430.81,625.951 1436.17,587.594 1441.54,549.679 1446.9,512.357 
  1452.26,475.777 1457.62,440.085 1462.98,405.424 1468.35,371.931 1473.71,339.74 1479.07,308.979 1484.43,279.771 1489.79,252.232 1495.16,226.472 1500.52,202.594 
  1505.88,180.693 1511.24,160.857 1516.6,143.163 1521.97,127.684 1527.33,114.48 1532.69,103.604 1538.05,95.0996 1543.41,89.0008 1548.78,85.3318 1554.14,84.1072 
  
  "/>
<path clip-path="url(#clip830)" d="
M1649.41 440.581 L2352.76 440.581 L2352.76 90.6606 L1649.41 90.6606  Z
  " fill="#ffffff" fill-rule="evenodd" fill-opacity="1"/>
<polyline clip-path="url(#clip830)" style="stroke:#000000; stroke-linecap:butt; stroke-linejoin:round; stroke-width:4; stroke-opacity:1; fill:none" points="
  1649.41,440.581 2352.76,440.581 2352.76,90.6606 1649.41,90.6606 1649.41,440.581 
  "/>
<polyline clip-path="url(#clip830)" style="stroke:#009af9; stroke-linecap:butt; stroke-linejoin:round; stroke-width:9; stroke-opacity:1; fill:none" points="
  1670.49,207.301 1797,207.301 
  "/>
<path clip-path="url(#clip830)" d="M1866.94 210.972 L1866.94 246.181 L1857.36 246.181 L1857.36 211.285 Q1857.36 203.004 1854.13 198.889 Q1850.9 194.775 1844.44 194.775 Q1836.68 194.775 1832.2 199.723 Q1827.72 204.67 1827.72 213.212 L1827.72 246.181 L1818.09 246.181 L1818.09 187.848 L1827.72 187.848 L1827.72 196.91 Q1831.16 191.65 1835.8 189.046 Q1840.48 186.441 1846.58 186.441 Q1856.63 186.441 1861.79 192.691 Q1866.94 198.889 1866.94 210.972 Z" fill="#000000" fill-rule="evenodd" fill-opacity="1" /><path clip-path="url(#clip830)" d="M1908.66 194.566 Q1900.95 194.566 1896.47 200.608 Q1891.99 206.597 1891.99 217.066 Q1891.99 227.535 1896.42 233.577 Q1900.9 239.566 1908.66 239.566 Q1916.32 239.566 1920.8 233.524 Q1925.27 227.483 1925.27 217.066 Q1925.27 206.702 1920.8 200.66 Q1916.32 194.566 1908.66 194.566 M1908.66 186.441 Q1921.16 186.441 1928.3 194.566 Q1935.43 202.691 1935.43 217.066 Q1935.43 231.389 1928.3 239.566 Q1921.16 247.691 1908.66 247.691 Q1896.11 247.691 1888.97 239.566 Q1881.89 231.389 1881.89 217.066 Q1881.89 202.691 1888.97 194.566 Q1896.11 186.441 1908.66 186.441 Z" fill="#000000" fill-rule="evenodd" fill-opacity="1" /><path clip-path="url(#clip830)" d="M1999.81 210.972 L1999.81 246.181 L1990.22 246.181 L1990.22 211.285 Q1990.22 203.004 1986.99 198.889 Q1983.76 194.775 1977.31 194.775 Q1969.55 194.775 1965.07 199.723 Q1960.59 204.67 1960.59 213.212 L1960.59 246.181 L1950.95 246.181 L1950.95 187.848 L1960.59 187.848 L1960.59 196.91 Q1964.02 191.65 1968.66 189.046 Q1973.35 186.441 1979.44 186.441 Q1989.49 186.441 1994.65 192.691 Q1999.81 198.889 1999.81 210.972 Z" fill="#000000" fill-rule="evenodd" fill-opacity="1" /><path clip-path="url(#clip830)" d="M2018.92 165.139 L2028.5 165.139 L2028.5 246.181 L2018.92 246.181 L2018.92 165.139 Z" fill="#000000" fill-rule="evenodd" fill-opacity="1" /><path clip-path="url(#clip830)" d="M2048.56 187.848 L2058.14 187.848 L2058.14 246.181 L2048.56 246.181 L2048.56 187.848 M2048.56 165.139 L2058.14 165.139 L2058.14 177.275 L2048.56 177.275 L2048.56 165.139 Z" fill="#000000" fill-rule="evenodd" fill-opacity="1" /><path clip-path="url(#clip830)" d="M2126.68 210.972 L2126.68 246.181 L2117.1 246.181 L2117.1 211.285 Q2117.1 203.004 2113.87 198.889 Q2110.64 194.775 2104.18 194.775 Q2096.42 194.775 2091.94 199.723 Q2087.46 204.67 2087.46 213.212 L2087.46 246.181 L2077.83 246.181 L2077.83 187.848 L2087.46 187.848 L2087.46 196.91 Q2090.9 191.65 2095.53 189.046 Q2100.22 186.441 2106.32 186.441 Q2116.37 186.441 2121.52 192.691 Q2126.68 198.889 2126.68 210.972 Z" fill="#000000" fill-rule="evenodd" fill-opacity="1" /><path clip-path="url(#clip830)" d="M2195.69 214.618 L2195.69 219.306 L2151.63 219.306 Q2152.25 229.202 2157.57 234.41 Q2162.93 239.566 2172.46 239.566 Q2177.98 239.566 2183.14 238.212 Q2188.35 236.858 2193.45 234.149 L2193.45 243.212 Q2188.29 245.399 2182.88 246.545 Q2177.46 247.691 2171.89 247.691 Q2157.93 247.691 2149.75 239.566 Q2141.63 231.441 2141.63 217.587 Q2141.63 203.264 2149.34 194.879 Q2157.1 186.441 2170.22 186.441 Q2181.99 186.441 2188.82 194.045 Q2195.69 201.598 2195.69 214.618 M2186.11 211.806 Q2186 203.941 2181.68 199.254 Q2177.41 194.566 2170.33 194.566 Q2162.3 194.566 2157.46 199.098 Q2152.67 203.629 2151.94 211.858 L2186.11 211.806 Z" fill="#000000" fill-rule="evenodd" fill-opacity="1" /><path clip-path="url(#clip830)" d="M2237.93 216.858 Q2226.31 216.858 2221.84 219.514 Q2217.36 222.17 2217.36 228.577 Q2217.36 233.681 2220.69 236.702 Q2224.08 239.67 2229.86 239.67 Q2237.83 239.67 2242.62 234.045 Q2247.46 228.368 2247.46 218.993 L2247.46 216.858 L2237.93 216.858 M2257.04 212.9 L2257.04 246.181 L2247.46 246.181 L2247.46 237.327 Q2244.18 242.639 2239.28 245.191 Q2234.39 247.691 2227.3 247.691 Q2218.35 247.691 2213.03 242.691 Q2207.77 237.639 2207.77 229.202 Q2207.77 219.358 2214.34 214.358 Q2220.95 209.358 2234.02 209.358 L2247.46 209.358 L2247.46 208.42 Q2247.46 201.806 2243.09 198.212 Q2238.76 194.566 2230.9 194.566 Q2225.9 194.566 2221.16 195.764 Q2216.42 196.962 2212.04 199.358 L2212.04 190.504 Q2217.3 188.473 2222.25 187.483 Q2227.2 186.441 2231.89 186.441 Q2244.54 186.441 2250.79 193.004 Q2257.04 199.566 2257.04 212.9 Z" fill="#000000" fill-rule="evenodd" fill-opacity="1" /><path clip-path="url(#clip830)" d="M2310.59 196.806 Q2308.97 195.868 2307.04 195.452 Q2305.17 194.983 2302.88 194.983 Q2294.75 194.983 2290.38 200.295 Q2286.05 205.556 2286.05 215.452 L2286.05 246.181 L2276.42 246.181 L2276.42 187.848 L2286.05 187.848 L2286.05 196.91 Q2289.08 191.598 2293.92 189.046 Q2298.76 186.441 2305.69 186.441 Q2306.68 186.441 2307.88 186.598 Q2309.07 186.702 2310.53 186.962 L2310.59 196.806 Z" fill="#000000" fill-rule="evenodd" fill-opacity="1" /><polyline clip-path="url(#clip830)" style="stroke:#e26f46; stroke-linecap:butt; stroke-linejoin:round; stroke-width:9; stroke-opacity:1; fill:none" points="
  1670.49,323.941 1797,323.941 
  "/>
<path clip-path="url(#clip830)" d="M1818.09 281.779 L1827.67 281.779 L1827.67 362.821 L1818.09 362.821 L1818.09 281.779 Z" fill="#000000" fill-rule="evenodd" fill-opacity="1" /><path clip-path="url(#clip830)" d="M1847.72 304.488 L1857.31 304.488 L1857.31 362.821 L1847.72 362.821 L1847.72 304.488 M1847.72 281.779 L1857.31 281.779 L1857.31 293.915 L1847.72 293.915 L1847.72 281.779 Z" fill="#000000" fill-rule="evenodd" fill-opacity="1" /><path clip-path="url(#clip830)" d="M1925.85 327.612 L1925.85 362.821 L1916.26 362.821 L1916.26 327.925 Q1916.26 319.644 1913.04 315.529 Q1909.81 311.415 1903.35 311.415 Q1895.59 311.415 1891.11 316.363 Q1886.63 321.31 1886.63 329.852 L1886.63 362.821 L1876.99 362.821 L1876.99 304.488 L1886.63 304.488 L1886.63 313.55 Q1890.07 308.29 1894.7 305.686 Q1899.39 303.081 1905.48 303.081 Q1915.54 303.081 1920.69 309.331 Q1925.85 315.529 1925.85 327.612 Z" fill="#000000" fill-rule="evenodd" fill-opacity="1" /><path clip-path="url(#clip830)" d="M1994.86 331.258 L1994.86 335.946 L1950.8 335.946 Q1951.42 345.842 1956.73 351.05 Q1962.1 356.206 1971.63 356.206 Q1977.15 356.206 1982.31 354.852 Q1987.51 353.498 1992.62 350.789 L1992.62 359.852 Q1987.46 362.039 1982.05 363.185 Q1976.63 364.331 1971.06 364.331 Q1957.1 364.331 1948.92 356.206 Q1940.8 348.081 1940.8 334.227 Q1940.8 319.904 1948.5 311.519 Q1956.26 303.081 1969.39 303.081 Q1981.16 303.081 1987.98 310.685 Q1994.86 318.238 1994.86 331.258 M1985.27 328.446 Q1985.17 320.581 1980.85 315.894 Q1976.58 311.206 1969.49 311.206 Q1961.47 311.206 1956.63 315.738 Q1951.84 320.269 1951.11 328.498 L1985.27 328.446 Z" fill="#000000" fill-rule="evenodd" fill-opacity="1" /><path clip-path="url(#clip830)" d="M2037.1 333.498 Q2025.48 333.498 2021 336.154 Q2016.52 338.81 2016.52 345.217 Q2016.52 350.321 2019.86 353.342 Q2023.24 356.31 2029.02 356.31 Q2036.99 356.31 2041.78 350.685 Q2046.63 345.008 2046.63 335.633 L2046.63 333.498 L2037.1 333.498 M2056.21 329.54 L2056.21 362.821 L2046.63 362.821 L2046.63 353.967 Q2043.35 359.279 2038.45 361.831 Q2033.56 364.331 2026.47 364.331 Q2017.51 364.331 2012.2 359.331 Q2006.94 354.279 2006.94 345.842 Q2006.94 335.998 2013.5 330.998 Q2020.12 325.998 2033.19 325.998 L2046.63 325.998 L2046.63 325.06 Q2046.63 318.446 2042.25 314.852 Q2037.93 311.206 2030.07 311.206 Q2025.07 311.206 2020.33 312.404 Q2015.59 313.602 2011.21 315.998 L2011.21 307.144 Q2016.47 305.113 2021.42 304.123 Q2026.37 303.081 2031.06 303.081 Q2043.71 303.081 2049.96 309.644 Q2056.21 316.206 2056.21 329.54 Z" fill="#000000" fill-rule="evenodd" fill-opacity="1" /><path clip-path="url(#clip830)" d="M2109.75 313.446 Q2108.14 312.508 2106.21 312.092 Q2104.34 311.623 2102.04 311.623 Q2093.92 311.623 2089.54 316.935 Q2085.22 322.196 2085.22 332.092 L2085.22 362.821 L2075.59 362.821 L2075.59 304.488 L2085.22 304.488 L2085.22 313.55 Q2088.24 308.238 2093.09 305.686 Q2097.93 303.081 2104.86 303.081 Q2105.85 303.081 2107.04 303.238 Q2108.24 303.342 2109.7 303.602 L2109.75 313.446 Z" fill="#000000" fill-rule="evenodd" fill-opacity="1" /></svg>